<?xml version="1.0" encoding="utf-8"?>
<!-- Generator: Adobe Illustrator 15.0.0, SVG Export Plug-In . SVG Version: 6.00 Build 0)  -->
<!DOCTYPE svg PUBLIC "-//W3C//DTD SVG 1.1//EN" "http://www.w3.org/Graphics/SVG/1.1/DTD/svg11.dtd">
<svg version="1.1" id="Layer_1" xmlns="http://www.w3.org/2000/svg" xmlns:xlink="http://www.w3.org/1999/xlink" x="0px" y="0px"
	 width="860px" height="1500px" viewBox="0 0 860 1500" enable-background="new 0 0 860 1500" xml:space="preserve">
<g>
	<g>
		<g>
			<path d="M435.347,740.299c1.88-1.256,3.184-3.719,3.957-5.799c0.4-1.075,0.674-2.198,0.92-3.315
				c0.07-0.525,0.071-0.532,0.004-0.021c0.064-0.333,0.116-0.668,0.156-1.004c0.1-0.858,0.154-1.706,0.093-2.569
				c-0.138-1.918-3.139-1.932-3,0c0.135,1.875-0.279,3.669-0.843,5.437c-0.388,1.217-0.911,2.317-1.61,3.389
				c-0.47,0.721-1.28,1.446-1.42,2.333c-0.298,1.892,2.593,2.705,2.893,0.798c0.129-0.821,1.395-2.027,1.822-2.762
				c0.53-0.91,0.885-1.963,1.208-2.961c0.15-0.464,0.29-0.92,0.426-1.388c0.054-0.187,0.54-2.266,0.275-1.273
				c0.289-1.082,0.329-2.458,0.249-3.574c-0.138-1.918-3.139-1.932-3,0c0.211,2.945-0.956,8.324-3.644,10.119
				C432.232,738.777,433.733,741.377,435.347,740.299L435.347,740.299z"/>
		</g>
	</g>
	<g>
		<linearGradient id="SVGID_1_" gradientUnits="userSpaceOnUse" x1="411.208" y1="752.3535" x2="438.9922" y2="762.4662">
			<stop  offset="0" style="stop-color:#FFCE16;stop-opacity:0"/>
			<stop  offset="0.1306" style="stop-color:#FDC13D;stop-opacity:0.2421"/>
			<stop  offset="0.2724" style="stop-color:#FCB751;stop-opacity:0.505"/>
			<stop  offset="0.4104" style="stop-color:#FBB15B;stop-opacity:0.7609"/>
			<stop  offset="0.5394" style="stop-color:#FBAF5E"/>
		</linearGradient>
		<path fill="url(#SVGID_1_)" d="M432.941,738.251c3.387,0.94,7.28,5.903,8.146,8.421c1.898,5.51,0.402,9.683-0.932,11.983
			c-4.533,7.819-10.794,13.5-16.94,15.251c-4.627,1.317-8.76,1.171-11.654,0.543c-3.215-0.702-4.997-3.63-5.253-4.714
			c-0.554-2.357,0.343-4.604,1.274-6.05c0.828-1.287,2.084-2.107,2.547-3.407c1.138-3.2,1.157-8.961,2.739-12.388
			c1.991-4.32,4.733-6.889,6.161-7.912c3.535-2.53,7.535-2.829,8.947-2.77c1.911,0.078,3.803,0.773,5.018,1.055"/>
		<g>
			<path d="M432.842,738.613c4.243,1.636,7.182,5.707,8.396,9.945c1.533,5.348-1.19,9.92-4.126,14.069
				c-5.915,8.361-15.101,13.373-25.451,11.461c-3.751-0.693-5.443-4.094-4.911-7.619c0.33-2.189,2.587-4.079,3.703-6.001
				c1.521-2.621,1.3-6.968,1.925-9.901c2.104-9.891,11.43-14.351,20.517-11.941c0.468,0.124,0.666-0.6,0.199-0.724
				c-9.578-2.539-17.446,1.777-21.06,11.111c-1.208,3.122-1.223,6.754-1.924,10.011c-0.741,3.443-3.771,5.179-4.329,8.876
				c-0.52,3.446,2.852,5.979,5.681,6.911c10.942,3.608,21.447-4.948,27.241-13.138c5.628-7.955,4.396-19.904-5.662-23.784
				C432.589,737.715,432.396,738.44,432.842,738.613L432.842,738.613z"/>
		</g>
	</g>
	<g>
		<g>
			<linearGradient id="SVGID_2_" gradientUnits="userSpaceOnUse" x1="442.6191" y1="732.6782" x2="445.7356" y2="742.8716">
				<stop  offset="0" style="stop-color:#FFFFFF"/>
				<stop  offset="0.7879" style="stop-color:#009444"/>
			</linearGradient>
			<path fill="url(#SVGID_2_)" d="M453.382,737.787c-0.44,0.068-1.452,1.155-2.325,2.336c-1.735,2.349-5.822,3.013-9.65,2.57
				c0,0-1.432-0.232-1.773-0.335c-0.341-0.103-1.418-0.493-2.115-0.978c-0.355-0.248-1.554-1.165-2.127-2.249
				c-0.226-0.429,0.188-0.706,0.458-1.217c0.856-1.616,3.443-3.636,4.064-4.009c1.167-0.699,2.445-1.45,4.107-1.246
				C448.669,733.234,453.624,737.749,453.382,737.787z"/>
			<g>
				<path d="M453.306,737.658c-0.702,0.375-1.149,0.908-1.686,1.506c-1.947,2.174-3.836,3.143-6.77,3.463
					c-2.903,0.318-5.979-0.213-8.209-2.163c-2.259-1.976,0.506-4.063,1.787-5.226c2.088-1.896,4.655-2.79,7.547-1.97
					c1.679,0.476,6.607,2.682,7.262,4.56c0.063,0.181,0.353,0.104,0.289-0.08c-0.876-2.515-6.216-4.413-8.467-5.051
					c-4.064-1.153-7.778,2.738-9.756,5.783c-1.373,2.115,4.654,4.119,5.834,4.322c2.31,0.397,4.68,0.153,6.915-0.486
					c2.525-0.723,3.252-3.248,5.405-4.398C453.628,737.825,453.477,737.566,453.306,737.658z"/>
			</g>
		</g>
		<linearGradient id="SVGID_3_" gradientUnits="userSpaceOnUse" x1="443.7266" y1="736.3716" x2="444.914" y2="740.2556">
			<stop  offset="0" style="stop-color:#FFFFFF"/>
			<stop  offset="0.7879" style="stop-color:#009444"/>
		</linearGradient>
		<path fill="url(#SVGID_3_)" stroke="#000000" stroke-width="0.2" stroke-miterlimit="10" d="M435.396,739.024
			c0.813-0.322,1.391-0.532,2.632-0.911c0.658-0.201,1.785-0.543,3.51-0.719c1.002-0.102,2.985-0.182,3.942-0.191
			c0.897-0.009,3.636,0.104,4.702,0.234c0.756,0.059,2.514,0.226,3.092,0.262"/>
	</g>
</g>
</svg>
