<?xml version="1.0" encoding="utf-8"?>
<!-- Generator: Adobe Illustrator 15.0.0, SVG Export Plug-In . SVG Version: 6.00 Build 0)  -->
<!DOCTYPE svg PUBLIC "-//W3C//DTD SVG 1.1//EN" "http://www.w3.org/Graphics/SVG/1.1/DTD/svg11.dtd">
<svg version="1.1" id="Layer_1" xmlns="http://www.w3.org/2000/svg" xmlns:xlink="http://www.w3.org/1999/xlink" x="0px" y="0px"
	 width="860px" height="1500px" viewBox="0 0 860 1500" enable-background="new 0 0 860 1500" xml:space="preserve">
<g>
	<g>
		<g>
			<path d="M451.979,697.678c3.566-2.091,6.017-6.163,8.238-9.517c2.258-3.409,4.607-7.075,6.099-10.904
				c4.04-10.376,6.576-20.365,5.807-31.361c-0.134-1.918-3.135-1.932-3,0c0.652,9.323-1.563,18.583-4.558,27.317
				c-1.985,5.789-4.621,10.974-8.15,15.971c-1.515,2.144-4.669,4.987-4.66,7.837c0.006,1.934,3.006,1.935,3,0
				c-0.004-1.159,1.648-2.775,2.282-3.637c1.431-1.947,2.842-3.896,4.169-5.915c3.106-4.728,5.027-9.887,6.85-15.201
				c2.976-8.678,4.723-17.007,4.067-26.372c-0.134-1.918-3.135-1.932-3,0c0.687,9.817-1.778,19.192-4.896,28.404
				c-1.239,3.663-3.283,7.003-5.291,10.288c-2.183,3.57-4.758,8.324-8.47,10.499C448.798,696.065,450.307,698.658,451.979,697.678
				L451.979,697.678z"/>
		</g>
	</g>
	<g>
		<linearGradient id="SVGID_1_" gradientUnits="userSpaceOnUse" x1="347.7998" y1="755.4287" x2="470.6931" y2="800.1582">
			<stop  offset="0" style="stop-color:#FFCE16;stop-opacity:0"/>
			<stop  offset="0.1306" style="stop-color:#FDC13D;stop-opacity:0.2421"/>
			<stop  offset="0.2724" style="stop-color:#FCB751;stop-opacity:0.505"/>
			<stop  offset="0.4104" style="stop-color:#FBB15B;stop-opacity:0.7609"/>
			<stop  offset="0.5394" style="stop-color:#FBAF5E"/>
		</linearGradient>
		<path fill="url(#SVGID_1_)" d="M443.932,693.052c14.978,4.16,32.199,26.111,36.033,37.247c8.393,24.371,1.775,42.828-4.121,53.004
			c-20.055,34.586-47.745,59.713-74.932,67.457c-20.465,5.828-38.746,5.18-51.548,2.402c-14.22-3.105-22.103-16.056-23.236-20.85
			c-2.452-10.428,1.518-20.363,5.637-26.76c3.661-5.693,9.218-9.321,11.265-15.07c5.034-14.155,5.119-39.636,12.116-54.793
			c8.805-19.109,20.934-30.469,27.251-34.996c15.634-11.192,33.329-12.514,39.573-12.25c8.453,0.346,16.818,3.421,22.191,4.665"/>
		<g>
			<path d="M443.832,693.414c11.73,3.573,21.026,13.821,28.092,23.393c7.776,10.536,11.389,22.711,11.638,35.804
				c0.218,11.393-3.238,22.299-8.944,32.045c-7.418,12.667-16.309,24.478-26.472,35.067c-8.919,9.293-19.099,17.43-30.389,23.653
				c-12.417,6.845-26.429,10.093-40.485,11.195c-12.36,0.97-27.291,0.707-38.032-6.174c-11.208-7.18-15.519-18.907-12.176-31.682
				c2.393-9.146,8.763-14.802,14.18-22.065c4.152-5.569,4.819-14.087,5.894-20.716c1.363-8.406,2.405-16.856,4.231-25.181
				c1.99-9.07,5.845-17.237,10.748-25.089c8.509-13.625,20.138-24.624,35.228-30.464c6.904-2.672,14.385-4.113,21.773-4.391
				c8.604-0.325,16.713,2.645,24.943,4.66c0.47,0.115,0.669-0.608,0.199-0.724c-10.53-2.579-20.164-5.506-31.086-4.208
				c-11.276,1.34-22.358,5.556-31.539,12.248c-17.244,12.571-28.303,32.96-32.167,53.583c-2.175,11.609-2.895,23.612-6.432,34.93
				c-2.014,6.442-7.87,10.649-11.596,16.063c-3.189,4.634-5.563,10.636-6.16,16.226c-1.021,9.571,1.917,16.602,8.553,23.349
				c7.428,7.553,17.411,9.463,27.56,10.341c22.351,1.934,45.119-3.467,63.974-15.565c19.931-12.79,35.684-31.68,48.063-51.633
				c11.158-17.985,13.598-37.626,6.897-57.881c-2.643-7.991-8.432-15.193-13.934-21.405c-6.025-6.802-13.515-13.409-22.361-16.104
				C443.567,692.549,443.371,693.273,443.832,693.414L443.832,693.414z"/>
		</g>
	</g>
	<g>
		<g>
			<linearGradient id="SVGID_2_" gradientUnits="userSpaceOnUse" x1="486.7354" y1="668.4019" x2="500.5199" y2="713.4892">
				<stop  offset="0" style="stop-color:#FFFFFF"/>
				<stop  offset="0.7879" style="stop-color:#009444"/>
			</linearGradient>
			<path fill="url(#SVGID_2_)" d="M534.34,691c-1.945,0.302-6.425,5.11-10.282,10.332c-7.678,10.388-25.755,13.326-42.685,11.369
				c0,0-6.335-1.028-7.845-1.482c-1.509-0.453-6.276-2.181-9.36-4.324c-1.572-1.097-6.869-5.153-9.405-9.948
				c-0.998-1.896,0.827-3.123,2.026-5.382c3.785-7.149,15.23-16.082,17.977-17.731c5.162-3.093,10.816-6.415,18.168-5.512
				C513.494,670.863,535.411,690.832,534.34,691z"/>
			<g>
				<path d="M534.3,690.856c-5.968,1.929-9.258,9.95-13.692,13.922c-6.97,6.243-17.538,7.842-26.502,8.284
					c-6.821,0.336-13.908-0.271-20.537-1.986c-4.081-1.056-7.997-3.188-11.28-5.798c-4.481-3.563-8.903-7.899-5.369-13.635
					c4.1-6.655,10.084-12.023,16.355-16.62c8.152-5.976,16.715-7.797,26.489-5.113c8.055,2.211,15.548,6.49,22.433,11.126
					c0.562,0.378,12.555,9.307,12.037,9.859c-0.132,0.141,0.08,0.354,0.213,0.212c0.721-0.77-5.966-5.82-6.481-6.228
					c-6.901-5.457-14.55-10.039-22.688-13.383c-9.282-3.814-17.894-4.646-26.92,0.086c-7.59,3.979-14.518,10.143-19.74,16.877
					c-1.046,1.349-4.772,5.65-4.287,7.458c1.048,3.9,4.772,7.077,7.746,9.572c5.546,4.654,12.314,6.222,19.257,7.357
					c9.863,1.613,20.938,0.632,30.349-2.691c3.725-1.315,7.123-3.361,10.058-5.989c4.192-3.755,6.954-11.183,12.641-13.021
					C534.563,691.086,534.484,690.796,534.3,690.856z"/>
			</g>
		</g>
		<linearGradient id="SVGID_3_" gradientUnits="userSpaceOnUse" x1="491.6309" y1="684.7363" x2="496.8835" y2="701.9171">
			<stop  offset="0" style="stop-color:#FFFFFF"/>
			<stop  offset="0.7879" style="stop-color:#009444"/>
		</linearGradient>
		<path fill="url(#SVGID_3_)" stroke="#000000" stroke-width="0.2" stroke-miterlimit="10" d="M454.784,696.473
			c3.594-1.425,6.151-2.354,11.639-4.03c2.911-0.89,7.898-2.402,15.524-3.179c4.436-0.449,13.207-0.804,17.439-0.847
			c3.97-0.039,16.084,0.462,20.797,1.037c3.345,0.259,11.117,0.998,13.678,1.158"/>
	</g>
</g>
</svg>
