<?xml version="1.0" encoding="utf-8"?>
<!-- Generator: Adobe Illustrator 15.0.0, SVG Export Plug-In . SVG Version: 6.00 Build 0)  -->
<!DOCTYPE svg PUBLIC "-//W3C//DTD SVG 1.1//EN" "http://www.w3.org/Graphics/SVG/1.1/DTD/svg11.dtd">
<svg version="1.1" id="Layer_1" xmlns="http://www.w3.org/2000/svg" xmlns:xlink="http://www.w3.org/1999/xlink" x="0px" y="0px"
	 width="860px" height="1500px" viewBox="0 0 860 1500" enable-background="new 0 0 860 1500" xml:space="preserve">
<g>
	<g>
		<path fill="#A7A9AC" d="M-1704.107,835.952l2.375-5.806c2.494,1.161,4.154,2.795,4.979,4.9c0.826,2.106,0.833,4.352,0.021,6.734
			c-0.977,2.867-2.716,4.859-5.215,5.977c-2.499,1.117-5.42,1.106-8.761-0.032c-3.312-1.128-5.699-2.874-7.163-5.237
			c-1.462-2.363-1.684-5.041-0.664-8.033c0.952-2.795,2.458-4.68,4.517-5.654c2.058-0.974,4.4-1.123,7.025-0.447l-1.736,6.162
			c-1.414-0.482-2.527-0.56-3.341-0.232s-1.345,0.857-1.595,1.59c-0.696,2.042,1.009,3.764,5.114,5.162
			c2.301,0.783,3.954,1.051,4.961,0.801s1.673-0.854,2-1.814C-1701.008,838.31-1701.847,836.953-1704.107,835.952z"/>
		<path fill="#A7A9AC" d="M-1690.348,823.042c-0.89,2.61-2.409,4.407-4.558,5.39c-2.149,0.984-4.315,1.104-6.503,0.357
			c-2.353-0.801-4.039-2.271-5.061-4.41c-1.021-2.138-1.094-4.491-0.219-7.06c0.882-2.59,2.365-4.407,4.449-5.453
			c2.083-1.046,4.291-1.172,6.622-0.378c2.353,0.802,4.043,2.268,5.074,4.397C-1689.513,818.016-1689.448,820.401-1690.348,823.042z
			 M-1694.062,821.673c0.327-0.96,0.029-1.714-0.895-2.265c-0.924-0.551-1.927-1.011-3.01-1.38c-1.476-0.503-2.588-0.715-3.34-0.638
			c-0.752,0.078-1.26,0.504-1.523,1.277c-0.243,0.712-0.084,1.348,0.474,1.906s1.605,1.1,3.142,1.623
			c1.805,0.615,3.058,0.852,3.757,0.71C-1694.759,822.766-1694.294,822.354-1694.062,821.673z"/>
		<path fill="#A7A9AC" d="M-1678.753,787.944l-2.04,5.988l-9.842-3.353c-0.66-0.226-1.154-0.287-1.482-0.187
			c-0.327,0.102-0.575,0.395-0.74,0.879c-0.394,1.156,0.25,2.021,1.932,2.593l9.099,3.101l-2.019,5.927l-9.842-3.354
			c-1.258-0.429-2.053-0.158-2.383,0.812c-0.341,1.001,0.119,1.715,1.376,2.144l9.842,3.354l-2.025,5.942l-15.736-5.362l1.887-5.54
			l2.12,0.723c-1.292-1.546-1.618-3.263-0.975-5.15c0.692-2.032,2.011-3.229,3.953-3.593c-1.282-1.576-1.563-3.422-0.842-5.537
			c0.344-1.011,0.859-1.828,1.543-2.453c0.686-0.624,1.42-0.995,2.202-1.115c0.783-0.118,1.871,0.06,3.264,0.534L-1678.753,787.944z
			"/>
		<path fill="#A7A9AC" d="M-1670.484,779.95l-2.104,6.175l-20.704-7.055l1.935-5.679l2.228,0.759
			c-1.431-1.375-1.778-3.145-1.04-5.312c0.64-1.877,1.871-3.099,3.693-3.664c1.821-0.564,3.991-0.419,6.508,0.438
			c2.517,0.858,4.333,2.084,5.448,3.679c1.114,1.595,1.369,3.284,0.761,5.069c-0.598,1.754-1.725,2.86-3.378,3.321L-1670.484,779.95
			z M-1681.208,776.297c0.702,0.238,1.3,0.264,1.796,0.076c0.495-0.188,0.825-0.52,0.986-0.994c0.253-0.742,0.084-1.369-0.508-1.883
			c-0.591-0.512-1.599-1.01-3.021-1.495c-1.641-0.559-2.847-0.792-3.622-0.699c-0.775,0.093-1.271,0.46-1.489,1.099
			c-0.13,0.383-0.109,0.813,0.061,1.291c0.171,0.479,0.597,0.833,1.278,1.065L-1681.208,776.297z"/>
		<path fill="#A7A9AC" d="M-1681.746,745.182l15.736,5.361l-1.945,5.71l-2.584-0.88c1.655,1.496,2.07,3.457,1.244,5.881
			c-0.51,1.496-1.32,2.513-2.43,3.049c-1.11,0.537-2.439,0.543-3.987,0.016l-11.249-3.833l2.104-6.174l9.903,3.374
			c0.619,0.211,1.083,0.273,1.395,0.19c0.31-0.084,0.55-0.374,0.719-0.869c0.179-0.526,0.136-1.019-0.127-1.477
			c-0.264-0.459-0.737-0.804-1.417-1.036l-9.438-3.216L-1681.746,745.182z"/>
		<path fill="#A7A9AC" d="M-1677.327,732.214l4.007,1.366l-1.07,3.142l5.803,1.977c0.795,0.271,1.318,0.282,1.569,0.034
			c0.251-0.248,0.432-0.533,0.541-0.852c0.168-0.495,0.281-1.113,0.337-1.854l4.396,1.498c-0.178,1.298-0.467,2.535-0.867,3.712
			c-0.647,1.898-1.53,3.154-2.649,3.769c-1.119,0.615-2.57,0.618-4.355,0.01l-1.836-0.644l-4.968-1.692l-0.801,2.352l-4.007-1.365
			l0.801-2.353l-5.09-1.837l1.905-5.896l5.216,1.776L-1677.327,732.214z"/>
		<path fill="#A7A9AC" d="M-1662.995,723.195l2.348-5.625c1.431,0.868,2.453,2.186,3.064,3.955c0.613,1.769,0.514,3.845-0.298,6.228
			c-0.903,2.651-2.391,4.505-4.46,5.561c-2.071,1.056-4.24,1.199-6.509,0.425c-2.352-0.801-4.073-2.257-5.162-4.367
			c-1.088-2.109-1.19-4.464-0.304-7.063c0.857-2.517,2.314-4.292,4.37-5.324c2.056-1.033,4.399-1.101,7.029-0.205
			c0.217,0.074,0.515,0.182,0.893,0.321l-3.59,10.538c0.997,0.316,1.791,0.392,2.384,0.225c0.592-0.167,1.046-0.714,1.362-1.643
			C-1661.41,724.881-1661.786,723.872-1662.995,723.195z M-1667.222,722.221c-1.067-0.351-1.854-0.382-2.362-0.09
			s-0.867,0.746-1.077,1.363c-0.497,1.459,0.152,2.496,1.947,3.107L-1667.222,722.221z"/>
		<path fill="#A7A9AC" d="M-1652.543,711.022l-2.014,5.912l-15.736-5.362l1.75-5.138l3.249,1.107
			c-2.163-1.393-2.878-3.162-2.147-5.308c0.074-0.217,0.197-0.508,0.368-0.876l5.493,1.872c-0.25,0.398-0.434,0.768-0.55,1.108
			c-0.696,2.042,0.096,3.452,2.375,4.229L-1652.543,711.022z"/>
		<path fill="#A7A9AC" d="M-1668.736,689.358l4.376-12.844l3.621,1.234l-2.794,8.201l4.905,1.671l2.172-6.375l3.621,1.234
			l-2.172,6.375l5.199,1.771l2.794-8.201l3.776,1.287l-4.376,12.843L-1668.736,689.358z"/>
		<path fill="#A7A9AC" d="M-1658.223,676.499l1.408-4.131l2.135,0.728c-1.383-1.277-1.754-2.86-1.111-4.748
			c0.348-1.021,0.864-1.787,1.551-2.295c0.686-0.509,1.417-0.735,2.191-0.678c0.775,0.057,1.891,0.333,3.345,0.829l10.244,3.49
			l-1.487,4.363l-10.244-3.49c-1.052-0.358-1.748-0.445-2.087-0.262s-0.586,0.502-0.741,0.956c-0.267,0.784-0.203,1.382,0.193,1.793
			s1.248,0.84,2.558,1.286l9.161,3.121l-1.487,4.363L-1658.223,676.499z"/>
		<path fill="#A7A9AC" d="M-1651.112,647.213l2.847,0.97c-0.195,0.303-0.344,0.603-0.445,0.902c-0.31,0.908-0.028,1.62,0.843,2.135
			c1.079-0.496,2.253-0.527,3.522-0.095c1.414,0.482,2.367,1.394,2.858,2.735c0.493,1.343,0.454,2.849-0.115,4.521
			c-0.218,0.64-0.535,1.285-0.953,1.938c0.14,0.808,0.452,1.293,0.936,1.458c0.392,0.133,0.715,0.031,0.968-0.309
			c0.254-0.339,0.717-1.345,1.391-3.015c0.627-1.536,1.182-2.657,1.664-3.362c0.482-0.705,1.147-1.204,1.996-1.496
			c0.848-0.292,1.818-0.253,2.912,0.12c3.487,1.188,4.364,4.325,2.63,9.411c-1.455,4.271-3.426,5.982-5.911,5.135
			c-1.373-0.468-2.052-1.648-2.039-3.544c-1.104,1.144-2.239,1.517-3.404,1.12c-1.341-0.457-2.18-1.745-2.518-3.863
			c-1.291,1.287-2.854,1.618-4.69,0.992c-1.558-0.53-2.563-1.469-3.014-2.814c-0.451-1.345-0.372-2.91,0.236-4.694
			c0.404-1.187,1.011-2.223,1.819-3.111c-1.075-0.492-1.774-1.041-2.097-1.646c-0.324-0.605-0.323-1.383,0-2.332
			C-1651.522,647.914-1651.335,647.529-1651.112,647.213z M-1646.019,655.58c-1.681-0.573-2.678-0.399-2.991,0.519
			c-0.19,0.557-0.121,1.021,0.208,1.392s0.962,0.716,1.9,1.036c1.579,0.538,2.539,0.307,2.879-0.694
			c0.172-0.505,0.109-0.93-0.188-1.272C-1644.508,656.216-1645.111,655.89-1646.019,655.58z M-1636.754,662.45
			c0.11,1.063,0.583,1.736,1.419,2.021c1.052,0.358,1.985-0.659,2.801-3.052c0.7-2.053,0.503-3.266-0.59-3.638
			c-0.402-0.137-0.768-0.138-1.096-0.002c-0.329,0.136-0.584,0.365-0.77,0.688c-0.185,0.323-0.492,1.027-0.919,2.113
			C-1636.171,661.216-1636.453,661.839-1636.754,662.45z"/>
		<path fill="#A7A9AC" d="M-1647.897,641.987l-1.508,4.426l-4.317-1.471l1.508-4.426L-1647.897,641.987z M-1648.11,646.82
			l1.487-4.364l15.628,5.325l-1.487,4.364L-1648.11,646.82z"/>
		<path fill="#A7A9AC" d="M-1645.532,639.253l1.408-4.132l2.135,0.728c-1.384-1.277-1.754-2.86-1.111-4.748
			c0.348-1.021,0.865-1.787,1.551-2.295c0.687-0.509,1.417-0.735,2.191-0.678c0.775,0.057,1.89,0.333,3.344,0.829l10.244,3.49
			l-1.486,4.363l-10.244-3.49c-1.052-0.358-1.748-0.445-2.087-0.262s-0.586,0.502-0.74,0.956c-0.268,0.784-0.203,1.383,0.193,1.793
			c0.395,0.411,1.248,0.84,2.558,1.286l9.161,3.121l-1.487,4.364L-1645.532,639.253z"/>
		<path fill="#A7A9AC" d="M-1627.743,615.022l-2.789,8.186l0.863,0.294c1.398,0.477,2.398,0.605,3,0.386
			c0.603-0.219,1.009-0.637,1.22-1.254c0.452-1.326-0.182-2.374-1.9-3.143l1.571-3.8c3.396,1.928,4.509,4.613,3.336,8.054
			c-0.723,2.123-1.99,3.49-3.799,4.104c-1.81,0.614-3.916,0.511-6.32-0.308c-2.713-0.924-4.584-2.215-5.615-3.872
			c-1.03-1.655-1.21-3.467-0.539-5.436c0.604-1.772,1.741-3.038,3.41-3.797C-1633.637,613.678-1631.116,613.873-1627.743,615.022z
			 M-1631.667,618.279c-0.182-0.074-0.325-0.128-0.428-0.164c-2.011-0.685-3.249-0.35-3.71,1.006
			c-0.456,1.337,0.465,2.401,2.762,3.195L-1631.667,618.279z"/>
		<path fill="#A7A9AC" d="M-1622.776,600.445l-2.789,8.186l0.863,0.294c1.398,0.477,2.398,0.604,3,0.385
			c0.604-0.219,1.01-0.636,1.22-1.253c0.452-1.326-0.181-2.374-1.9-3.143l1.571-3.8c3.396,1.928,4.508,4.612,3.336,8.054
			c-0.723,2.123-1.99,3.491-3.8,4.104c-1.809,0.614-3.916,0.511-6.32-0.308c-2.713-0.925-4.584-2.215-5.615-3.872
			c-1.03-1.656-1.209-3.468-0.539-5.436c0.604-1.772,1.741-3.038,3.41-3.797C-1628.671,599.102-1626.149,599.296-1622.776,600.445z
			 M-1626.701,603.702c-0.182-0.073-0.324-0.128-0.428-0.163c-2.012-0.686-3.249-0.35-3.711,1.007
			c-0.455,1.336,0.465,2.401,2.763,3.195L-1626.701,603.702z"/>
		<path fill="#A7A9AC" d="M-1630.448,594.982l1.308-3.837l3.775,1.286c-2.416-1.594-3.321-3.278-2.717-5.054
			c0.074-0.216,0.184-0.455,0.331-0.716l4.255,1.449c-0.149,0.307-0.253,0.542-0.309,0.707c-0.724,2.125,0.523,3.736,3.741,4.833
			l6.731,2.293l-1.487,4.363L-1630.448,594.982z"/>
		<path fill="#A7A9AC" d="M-1626.93,580.447l-1.508,4.426l-4.317-1.471l1.508-4.426L-1626.93,580.447z M-1627.142,585.28
			l1.487-4.364l15.628,5.325l-1.487,4.364L-1627.142,585.28z"/>
		<path fill="#A7A9AC" d="M-1624.564,577.713l1.408-4.132l2.135,0.728c-1.383-1.277-1.754-2.86-1.111-4.748
			c0.348-1.021,0.864-1.787,1.55-2.295s1.417-0.735,2.191-0.678c0.775,0.057,1.89,0.333,3.344,0.829l10.244,3.49l-1.487,4.363
			l-10.243-3.49c-1.053-0.358-1.748-0.445-2.087-0.262s-0.586,0.503-0.741,0.956c-0.267,0.784-0.203,1.383,0.193,1.793
			c0.395,0.412,1.248,0.84,2.558,1.286l9.161,3.121l-1.487,4.364L-1624.564,577.713z"/>
		<path fill="#A7A9AC" d="M-1617.453,548.428l2.848,0.97c-0.195,0.303-0.344,0.603-0.446,0.902c-0.31,0.908-0.028,1.621,0.843,2.136
			c1.079-0.496,2.253-0.528,3.522-0.095c1.414,0.481,2.367,1.393,2.858,2.735c0.493,1.342,0.455,2.849-0.115,4.52
			c-0.218,0.64-0.535,1.286-0.954,1.938c0.14,0.807,0.452,1.294,0.936,1.459c0.392,0.133,0.715,0.031,0.969-0.309
			s0.717-1.344,1.391-3.015c0.626-1.536,1.182-2.657,1.663-3.362c0.482-0.705,1.147-1.204,1.996-1.496
			c0.848-0.293,1.818-0.253,2.912,0.12c3.487,1.188,4.364,4.325,2.631,9.411c-1.455,4.271-3.426,5.983-5.911,5.136
			c-1.373-0.468-2.052-1.648-2.04-3.544c-1.104,1.143-2.239,1.517-3.404,1.12c-1.34-0.457-2.18-1.745-2.518-3.863
			c-1.291,1.287-2.854,1.618-4.69,0.992c-1.558-0.531-2.563-1.469-3.014-2.814c-0.451-1.345-0.373-2.91,0.235-4.695
			c0.404-1.187,1.011-2.223,1.819-3.111c-1.075-0.492-1.774-1.042-2.097-1.647c-0.324-0.604-0.324-1.382,0-2.331
			C-1617.864,549.128-1617.676,548.743-1617.453,548.428z M-1612.36,556.795c-1.681-0.573-2.678-0.4-2.991,0.518
			c-0.189,0.558-0.121,1.021,0.208,1.392c0.329,0.372,0.962,0.716,1.9,1.036c1.579,0.538,2.539,0.308,2.879-0.693
			c0.172-0.505,0.109-0.93-0.188-1.273C-1610.85,557.431-1611.452,557.104-1612.36,556.795z M-1603.095,563.665
			c0.11,1.063,0.583,1.736,1.419,2.021c1.052,0.358,1.985-0.659,2.801-3.052c0.699-2.053,0.503-3.266-0.59-3.638
			c-0.402-0.137-0.769-0.138-1.097-0.002c-0.328,0.136-0.584,0.366-0.769,0.688c-0.186,0.323-0.492,1.027-0.919,2.113
			C-1602.512,562.43-1602.794,563.054-1603.095,563.665z"/>
	</g>
	<g>
		<path fill="#BCBEC0" d="M-1563.536,547.981l16.572-18.075l3.666,3.361l-1.815,1.98c2.06-0.886,3.938-0.552,5.632,1.001
			c1.462,1.341,2.123,3.026,1.979,5.053c-0.144,2.027-1.242,4.161-3.294,6.399c-2.184,2.381-4.3,3.745-6.349,4.091
			c-2.048,0.346-3.827-0.172-5.334-1.554c-1.525-1.398-2.07-2.99-1.633-4.773l-5.557,6.061L-1563.536,547.981z M-1550.064,541.05
			c-0.875,0.955-1.422,1.667-1.642,2.139c-0.219,0.473-0.274,1.025-0.165,1.659c0.109,0.633,0.381,1.15,0.819,1.551
			c0.544,0.499,1.286,0.666,2.225,0.501c0.939-0.165,2.28-1.198,4.022-3.097c2.445-2.667,2.962-4.646,1.554-5.938
			c-0.535-0.491-1.238-0.7-2.108-0.628c-0.872,0.072-1.825,0.674-2.864,1.807L-1550.064,541.05z"/>
		<path fill="#BCBEC0" d="M-1522.003,552.791l-12.389,13.513l-3.692-3.385l2.11-2.301c-2.275,1.083-4.393,0.726-6.355-1.074
			c-1.017-0.933-1.624-1.837-1.82-2.715c-0.197-0.877-0.113-1.753,0.252-2.625c0.364-0.873,1.115-1.929,2.251-3.169l8.096-8.83
			l3.867,3.545l-8.096,8.83c-1.112,1.213-1.168,2.277-0.169,3.193c0.508,0.466,1.083,0.726,1.723,0.78
			c0.64,0.054,1.162-0.038,1.568-0.273c0.405-0.237,0.976-0.755,1.712-1.558l6.955-7.586L-1522.003,552.791z"/>
		<path fill="#BCBEC0" d="M-1515.942,573.887c-1.615,1.458-3.43,2.17-5.444,2.138c-2.014-0.032-3.899-0.854-5.656-2.465
			c-1.909-1.75-2.885-3.806-2.927-6.168c-0.043-2.362,0.905-4.6,2.844-6.714c1.938-2.114,4.123-3.266,6.556-3.458
			c2.432-0.191,4.674,0.653,6.726,2.535c1.65,1.513,2.563,3.261,2.739,5.245c0.176,1.983-0.361,3.773-1.611,5.369l-3.916-3.196
			c1.364-1.737,1.403-3.195,0.118-4.373c-1.579-1.447-3.553-0.877-5.924,1.709c-1.579,1.721-2.36,3.016-2.343,3.885
			c0.016,0.869,0.34,1.592,0.974,2.173c1.23,1.129,2.683,1.023,4.354-0.317L-1515.942,573.887z"/>
		<path fill="#BCBEC0" d="M-1499.022,565.118l-6.039,6.587c2.025-0.741,3.89-0.332,5.594,1.23c0.91,0.834,1.506,1.747,1.788,2.735
			c0.284,0.991,0.27,1.919-0.04,2.784c-0.309,0.866-1.015,1.901-2.119,3.105l-8.182,8.924l-3.987-3.655l6.989-7.622
			c0.835-0.911,1.372-1.569,1.613-1.973c0.24-0.405,0.338-0.837,0.293-1.297c-0.044-0.46-0.258-0.866-0.64-1.216
			c-0.497-0.456-1.169-0.714-2.014-0.774c-0.845-0.06-1.848,0.544-3.011,1.813l-6.988,7.622l-3.867-3.545l16.744-18.263
			L-1499.022,565.118z"/>
		<path fill="#BCBEC0" d="M-1489.723,582.387l-12.39,13.513l-3.986-3.656l12.389-13.513L-1489.723,582.387z M-1485.024,577.263
			l-3.656,3.987l-3.987-3.656l3.655-3.987L-1485.024,577.263z"/>
		<path fill="#BCBEC0" d="M-1482.487,602.688l-8.697-7.974c-0.229,0.233-0.427,0.438-0.59,0.617
			c-0.883,0.963-1.293,1.925-1.229,2.886c0.063,0.961,0.451,1.768,1.165,2.423c1.329,1.218,2.777,1.241,4.345,0.068l3.367,3.579
			c-3.87,2.198-7.348,1.882-10.434-0.947c-1.347-1.234-2.243-2.553-2.69-3.956c-0.446-1.402-0.5-2.9-0.163-4.496
			c0.337-1.594,1.168-3.114,2.494-4.559c1.971-2.149,4.175-3.322,6.611-3.518s4.619,0.59,6.545,2.356
			c1.74,1.595,2.669,3.576,2.789,5.943C-1478.855,597.477-1480.025,600.003-1482.487,602.688z M-1489.076,592.388l4.804,4.403
			c1.576-1.97,1.664-3.597,0.264-4.88C-1485.507,590.537-1487.196,590.696-1489.076,592.388z"/>
	</g>
	<g>
		<path fill="#939598" d="M-1564.917,448.661c1.553,0.6,2.91,1.302,4.069,2.106c1.159,0.804,2.075,1.699,2.748,2.685
			c0.672,0.986,1.079,2.044,1.219,3.175c0.141,1.132-0.032,2.329-0.521,3.593c-0.419,1.087-1.006,1.998-1.759,2.73
			c-0.753,0.733-1.675,1.252-2.769,1.555c-1.093,0.305-2.364,0.373-3.811,0.207c-1.447-0.165-3.072-0.596-4.874-1.292
			c-1.554-0.6-2.911-1.306-4.074-2.117c-1.162-0.812-2.081-1.708-2.756-2.688c-0.675-0.98-1.081-2.039-1.22-3.175
			c-0.139-1.136,0.034-2.331,0.518-3.584c0.42-1.088,1.007-1.998,1.76-2.73c0.753-0.733,1.678-1.25,2.776-1.553
			c1.099-0.302,2.372-0.37,3.819-0.204C-1568.344,447.535-1566.72,447.965-1564.917,448.661z M-1569.652,460.649
			c0.321,0.124,0.643,0.246,0.967,0.364c0.322,0.119,0.641,0.221,0.953,0.306l-3.038-11.044c-0.588-0.049-1.145-0.038-1.673,0.032
			c-0.526,0.071-1.012,0.21-1.456,0.42c-0.444,0.209-0.836,0.493-1.176,0.85c-0.34,0.357-0.612,0.799-0.816,1.327
			c-0.272,0.704-0.348,1.41-0.228,2.116c0.12,0.707,0.441,1.394,0.963,2.059c0.523,0.666,1.242,1.301,2.157,1.904
			C-1572.083,459.586-1570.967,460.142-1569.652,460.649z M-1565.879,451.431c-0.352-0.136-0.707-0.257-1.063-0.366
			c-0.357-0.108-0.707-0.21-1.051-0.307l3.07,11.057c0.598,0.052,1.171,0.047,1.719-0.015c0.547-0.063,1.049-0.199,1.505-0.41
			c0.456-0.21,0.858-0.496,1.205-0.855c0.348-0.36,0.626-0.814,0.838-1.363c0.272-0.704,0.349-1.409,0.228-2.116
			c-0.12-0.707-0.438-1.393-0.956-2.056c-0.518-0.664-1.233-1.297-2.149-1.901S-1564.564,451.939-1565.879,451.431z"/>
		<path fill="#939598" d="M-1548.266,435.72l-4.923,12.755l-2.518-0.972l2.015-5.22l-14.821-5.721l0.764,5.883l-2.683,0.106
			l-0.907-7.776l0.924-2.393l17.881,6.902l1.751-4.537L-1548.266,435.72z"/>
		<path fill="#939598" d="M-1551.412,413.675c1.553,0.6,2.91,1.302,4.069,2.106c1.159,0.804,2.075,1.699,2.748,2.685
			c0.672,0.986,1.08,2.044,1.22,3.175c0.14,1.132-0.033,2.329-0.521,3.593c-0.419,1.087-1.006,1.998-1.759,2.73
			c-0.753,0.733-1.675,1.252-2.769,1.555c-1.093,0.305-2.364,0.373-3.811,0.207c-1.446-0.165-3.071-0.596-4.873-1.292
			c-1.554-0.6-2.912-1.306-4.075-2.117c-1.162-0.812-2.08-1.708-2.756-2.688c-0.675-0.98-1.081-2.039-1.22-3.175
			c-0.138-1.137,0.034-2.331,0.518-3.584c0.42-1.088,1.007-1.998,1.76-2.73c0.753-0.733,1.678-1.25,2.776-1.553
			c1.099-0.302,2.372-0.37,3.819-0.204C-1554.839,412.548-1553.215,412.979-1551.412,413.675z M-1556.147,425.663
			c0.321,0.124,0.643,0.246,0.967,0.364c0.322,0.119,0.641,0.221,0.953,0.306l-3.038-11.044c-0.588-0.049-1.145-0.038-1.673,0.032
			c-0.526,0.071-1.012,0.21-1.456,0.419c-0.444,0.21-0.836,0.493-1.176,0.85c-0.34,0.357-0.612,0.799-0.815,1.328
			c-0.272,0.704-0.348,1.41-0.229,2.116c0.12,0.707,0.441,1.393,0.963,2.059c0.523,0.666,1.242,1.301,2.157,1.904
			C-1558.578,424.6-1557.462,425.156-1556.147,425.663z M-1552.375,416.445c-0.352-0.136-0.707-0.257-1.063-0.366
			c-0.357-0.108-0.707-0.21-1.051-0.307l3.07,11.056c0.598,0.053,1.171,0.048,1.719-0.015c0.547-0.062,1.049-0.198,1.505-0.409
			c0.456-0.21,0.858-0.496,1.205-0.855c0.348-0.36,0.626-0.814,0.838-1.363c0.271-0.705,0.349-1.409,0.228-2.117
			c-0.12-0.706-0.438-1.392-0.956-2.055c-0.518-0.664-1.233-1.297-2.149-1.901S-1551.059,416.953-1552.375,416.445z"/>
		<path fill="#939598" d="M-1551.383,402.771l7.563,2.92c0.945,0.365,1.631,0.468,2.059,0.309s0.844-0.762,1.248-1.809
			c0.186-0.482,0.378-1.049,0.576-1.703l3.915,1.511c-0.333,1.635-0.629,2.791-0.889,3.463c-0.848,2.197-1.872,3.592-3.073,4.188
			c-1.199,0.596-2.904,0.467-5.112-0.386l-8.326-3.214l-1.094,2.835l-4.111-1.587l1.21-3.136l-5.115-2.463l1.403-4.689l5.633,2.174
			l1.484-3.844l4.11,1.587L-1551.383,402.771z"/>
		<path fill="#939598" d="M-1557.615,386.484l5.279,2.037l-2.038,5.279l-5.279-2.037L-1557.615,386.484z M-1550.83,389.103
			l17.893,6.907l-2.038,5.279l-17.893-6.907L-1550.83,389.103z"/>
		<path fill="#939598" d="M-1521.395,366.106l-2.038,5.279l-9.903-3.822c-1.393-0.538-2.315-0.847-2.767-0.927
			c-0.451-0.079-0.882,0.002-1.295,0.244c-0.412,0.241-0.736,0.669-0.974,1.283c-0.223,0.578-0.245,1.249-0.063,2.011
			c0.181,0.762,1.25,1.521,3.211,2.278l9.903,3.822l-2.038,5.279l-9.903-3.823c-1.428-0.551-2.378-0.843-2.847-0.875
			c-0.469-0.032-0.904,0.082-1.302,0.342c-0.399,0.261-0.706,0.668-0.92,1.223c-0.352,0.91-0.325,1.696,0.076,2.36
			c0.402,0.664,1.424,1.313,3.065,1.946l9.903,3.822l-1.976,5.12l-17.893-6.907l1.915-4.96l2.729,1.053
			c-1.743-1.638-2.127-3.716-1.155-6.236c0.881-2.283,2.551-3.534,5.011-3.754c-1.684-1.79-2.049-3.919-1.097-6.388
			c0.456-1.181,1.09-2.104,1.902-2.767c0.813-0.663,1.679-1.028,2.601-1.093c0.92-0.065,2.332,0.269,4.233,1.003L-1521.395,366.106z
			"/>
		<path fill="#939598" d="M-1521.578,342.587l-4.445,11.515c0.314,0.135,0.59,0.248,0.825,0.339c1.275,0.492,2.37,0.525,3.282,0.096
			c0.912-0.428,1.549-1.115,1.914-2.06c0.68-1.76,0.149-3.179-1.591-4.258l2.201-4.646c3.618,2.93,4.638,6.438,3.061,10.524
			c-0.688,1.783-1.63,3.16-2.825,4.13s-2.634,1.596-4.316,1.875c-1.683,0.28-3.48,0.051-5.394-0.688
			c-2.846-1.098-4.83-2.796-5.951-5.095c-1.122-2.299-1.189-4.724-0.205-7.275c0.889-2.303,2.463-3.965,4.723-4.985
			C-1528.04,341.039-1525.132,341.215-1521.578,342.587z M-1529.095,352.937l2.455-6.36c-2.52-0.783-4.138-0.247-4.853,1.607
			C-1532.259,350.168-1531.459,351.752-1529.095,352.937z"/>
		<path fill="#939598" d="M-1512.231,342.367l-24.182-9.334l2.038-5.279l24.182,9.334L-1512.231,342.367z"/>
		<path fill="#939598" d="M-1510.376,313.568l-4.445,11.516c0.314,0.135,0.59,0.248,0.825,0.339c1.275,0.492,2.37,0.524,3.282,0.096
			c0.912-0.428,1.549-1.115,1.914-2.06c0.68-1.76,0.149-3.179-1.592-4.258l2.201-4.647c3.618,2.93,4.638,6.438,3.061,10.525
			c-0.688,1.783-1.63,3.16-2.825,4.13s-2.634,1.596-4.316,1.875c-1.683,0.28-3.48,0.051-5.394-0.688
			c-2.846-1.099-4.83-2.797-5.951-5.096c-1.122-2.299-1.189-4.724-0.205-7.275c0.889-2.303,2.463-3.965,4.723-4.985
			C-1516.839,312.021-1513.931,312.197-1510.376,313.568z M-1517.894,323.918l2.455-6.36c-2.52-0.783-4.138-0.247-4.854,1.607
			C-1521.058,321.149-1520.258,322.734-1517.894,323.918z"/>
		<path fill="#939598" d="M-1509.431,294.719l-0.456,4.241c-1.792-0.176-3.05,0.675-3.774,2.553
			c-0.684,1.771-0.487,2.865,0.589,3.281c0.426,0.165,0.83,0.133,1.208-0.093c0.38-0.227,0.922-0.992,1.626-2.293
			c1.058-1.939,1.954-3.331,2.687-4.175c0.732-0.843,1.628-1.39,2.688-1.639c1.059-0.249,2.204-0.136,3.432,0.338
			c1.842,0.711,3.071,1.989,3.689,3.836c0.616,1.846,0.439,4.026-0.532,6.542c-1.76,4.559-4.575,6.6-8.449,6.122l1.062-4.699
			c1.748,0.254,3.061-0.759,3.941-3.039c0.337-0.874,0.465-1.672,0.384-2.396c-0.081-0.724-0.388-1.188-0.921-1.394
			c-0.829-0.321-1.577,0.157-2.244,1.434c-1.841,3.442-3.45,5.552-4.829,6.329c-1.38,0.777-2.907,0.842-4.584,0.195
			c-1.701-0.657-2.852-1.86-3.451-3.611c-0.6-1.751-0.439-3.82,0.482-6.206c0.729-1.889,1.685-3.258,2.866-4.104
			C-1512.832,295.095-1511.305,294.688-1509.431,294.719z"/>
		<path fill="#939598" d="M-1502.804,277.552l-0.456,4.242c-1.792-0.176-3.05,0.675-3.774,2.553
			c-0.684,1.771-0.487,2.865,0.589,3.28c0.426,0.164,0.829,0.133,1.208-0.093c0.38-0.227,0.921-0.991,1.626-2.293
			c1.058-1.94,1.954-3.331,2.686-4.175c0.733-0.843,1.628-1.39,2.689-1.639c1.059-0.249,2.204-0.137,3.432,0.337
			c1.842,0.711,3.072,1.99,3.689,3.836c0.617,1.846,0.44,4.027-0.531,6.542c-1.76,4.559-4.575,6.6-8.449,6.122l1.062-4.699
			c1.747,0.253,3.061-0.759,3.94-3.039c0.337-0.874,0.466-1.673,0.385-2.396c-0.081-0.724-0.388-1.188-0.921-1.394
			c-0.829-0.321-1.577,0.157-2.244,1.433c-1.841,3.443-3.45,5.553-4.829,6.33c-1.379,0.777-2.907,0.842-4.584,0.194
			c-1.701-0.656-2.852-1.86-3.451-3.611c-0.6-1.751-0.438-3.82,0.482-6.206c0.729-1.889,1.685-3.258,2.866-4.104
			C-1506.206,277.928-1504.679,277.521-1502.804,277.552z"/>
	</g>
	<g>
		<path fill="#939598" d="M-1736.984,599.575l8.308,12.528l2.726-1.808c0.25-0.166,0.461-0.236,0.633-0.212
			c0.172,0.024,0.311,0.115,0.416,0.274c0.1,0.149,0.128,0.31,0.086,0.482c-0.042,0.172-0.188,0.34-0.438,0.506l-6.515,4.32
			c-0.25,0.166-0.462,0.235-0.637,0.208c-0.175-0.029-0.312-0.118-0.412-0.268c-0.105-0.159-0.136-0.322-0.09-0.489
			c0.044-0.168,0.192-0.335,0.442-0.501l2.726-1.808l-8.308-12.528l-4.302,2.853l2.413,3.639c0.171,0.258,0.245,0.474,0.221,0.645
			c-0.024,0.172-0.116,0.31-0.274,0.415c-0.15,0.1-0.311,0.129-0.483,0.087c-0.172-0.041-0.344-0.192-0.515-0.45l-3.11-4.689
			l11.767-7.803l3.11,4.689c0.171,0.258,0.245,0.475,0.221,0.646c-0.024,0.172-0.116,0.31-0.274,0.415s-0.321,0.135-0.489,0.091
			c-0.167-0.044-0.337-0.197-0.508-0.455l-2.413-3.639L-1736.984,599.575z"/>
		<path fill="#939598" d="M-1724.647,587.594l1.799,2.714l-1.551,1.028l-1.799-2.714L-1724.647,587.594z M-1721.035,592.958
			l6.484,9.777l4.126-2.736c0.258-0.171,0.474-0.245,0.646-0.22c0.172,0.024,0.311,0.115,0.416,0.274
			c0.1,0.149,0.128,0.311,0.086,0.483c-0.042,0.171-0.192,0.343-0.451,0.514l-9.303,6.169c-0.25,0.166-0.462,0.235-0.637,0.207
			c-0.175-0.028-0.312-0.118-0.412-0.267c-0.105-0.159-0.135-0.322-0.09-0.49c0.044-0.168,0.191-0.335,0.442-0.501l4.126-2.736
			l-5.779-8.715l-3.063,2.032c-0.25,0.166-0.465,0.236-0.644,0.21c-0.179-0.025-0.317-0.112-0.417-0.263
			c-0.104-0.158-0.136-0.323-0.094-0.496c0.042-0.171,0.192-0.343,0.451-0.514L-1721.035,592.958z"/>
		<path fill="#939598" d="M-1702.541,589.965l-1.2,0.796l-10.133-6.512l-0.2,0.133l8.308,12.528l1.938-1.286
			c0.25-0.166,0.461-0.237,0.633-0.212c0.172,0.024,0.311,0.115,0.416,0.274c0.1,0.149,0.128,0.311,0.086,0.483
			c-0.042,0.171-0.188,0.34-0.438,0.506l-3.876,2.571c-0.25,0.166-0.462,0.235-0.637,0.207c-0.175-0.029-0.312-0.118-0.412-0.267
			c-0.105-0.159-0.135-0.322-0.09-0.49c0.044-0.168,0.192-0.335,0.442-0.501l0.888-0.589l-8.308-12.528l-0.663,0.439
			c-0.25,0.166-0.461,0.237-0.633,0.212c-0.172-0.023-0.311-0.115-0.416-0.273s-0.135-0.321-0.09-0.49
			c0.044-0.167,0.192-0.334,0.442-0.5l2.576-1.708l9.98,6.417l-2.09-11.649l2.576-1.708c0.258-0.171,0.473-0.245,0.646-0.222
			c0.172,0.025,0.31,0.116,0.416,0.274c0.104,0.158,0.135,0.321,0.09,0.488c-0.044,0.169-0.196,0.338-0.455,0.51l-0.65,0.431
			l8.308,12.528l0.875-0.581c0.258-0.171,0.474-0.245,0.646-0.22c0.172,0.024,0.311,0.115,0.416,0.274
			c0.1,0.149,0.128,0.311,0.086,0.483c-0.042,0.171-0.192,0.343-0.451,0.514l-3.864,2.562c-0.25,0.166-0.464,0.236-0.643,0.211
			c-0.179-0.026-0.318-0.114-0.418-0.263c-0.105-0.159-0.135-0.322-0.09-0.489c0.045-0.168,0.196-0.338,0.455-0.51l1.938-1.285
			l-8.308-12.528l-0.225,0.149L-1702.541,589.965z"/>
		<path fill="#939598" d="M-1694.342,580.674l3.988,6.015l8.078-5.357l-2.056-3.101c-0.166-0.25-0.236-0.46-0.212-0.632
			s0.115-0.311,0.273-0.416s0.322-0.134,0.49-0.09c0.167,0.045,0.334,0.192,0.5,0.442l2.753,4.151l-11.591,7.687
			c-0.25,0.166-0.462,0.235-0.637,0.207c-0.175-0.029-0.312-0.118-0.411-0.267c-0.105-0.159-0.136-0.322-0.091-0.49
			c0.045-0.168,0.192-0.335,0.442-0.501l1.413-0.937l-8.309-12.528l-1.413,0.937c-0.25,0.166-0.461,0.237-0.634,0.212
			c-0.172-0.024-0.31-0.115-0.416-0.273c-0.104-0.158-0.135-0.321-0.09-0.49c0.045-0.167,0.193-0.334,0.443-0.5l11.041-7.322
			l2.396,3.613c0.167,0.251,0.237,0.461,0.213,0.633c-0.024,0.172-0.115,0.311-0.273,0.416c-0.159,0.105-0.322,0.135-0.49,0.09
			c-0.167-0.044-0.334-0.191-0.5-0.442l-1.699-2.563l-7.527,4.992l3.623,5.464l3.764-2.496l-0.788-1.188
			c-0.166-0.25-0.234-0.463-0.206-0.636c0.028-0.175,0.121-0.315,0.28-0.42c0.15-0.1,0.311-0.127,0.483-0.085
			c0.172,0.041,0.34,0.188,0.506,0.438l2.272,3.426c0.165,0.25,0.234,0.463,0.206,0.638s-0.118,0.311-0.268,0.411
			c-0.159,0.105-0.323,0.137-0.495,0.095c-0.172-0.042-0.341-0.189-0.506-0.439l-0.788-1.188L-1694.342,580.674z"/>
		<path fill="#939598" d="M-1682.974,563.757l8.308,12.528l6.978-4.627l-2.769-4.176c-0.166-0.25-0.235-0.463-0.207-0.638
			s0.121-0.314,0.28-0.419c0.15-0.099,0.31-0.129,0.479-0.092c0.169,0.038,0.339,0.187,0.511,0.444l3.466,5.227l-11.604,7.695
			c-0.25,0.166-0.462,0.235-0.637,0.207c-0.175-0.029-0.312-0.118-0.412-0.267c-0.105-0.159-0.136-0.322-0.09-0.49
			c0.044-0.168,0.191-0.335,0.442-0.501l2.5-1.659l-8.308-12.528l-2.5,1.659c-0.25,0.166-0.461,0.237-0.634,0.212
			c-0.172-0.024-0.31-0.115-0.415-0.273s-0.135-0.321-0.091-0.49c0.045-0.167,0.192-0.334,0.443-0.5l6.064-4.022
			c0.25-0.166,0.461-0.237,0.633-0.213c0.172,0.025,0.311,0.116,0.416,0.274s0.135,0.321,0.09,0.489
			c-0.044,0.168-0.192,0.335-0.442,0.501L-1682.974,563.757z"/>
		<path fill="#939598" d="M-1666.167,561.99l3.988,6.015l8.078-5.356l-2.056-3.101c-0.166-0.25-0.236-0.46-0.212-0.633
			c0.024-0.172,0.114-0.311,0.273-0.416c0.158-0.104,0.322-0.134,0.49-0.09c0.167,0.045,0.334,0.192,0.5,0.442l2.753,4.151
			l-11.591,7.687c-0.25,0.166-0.462,0.235-0.637,0.207c-0.175-0.029-0.312-0.118-0.412-0.267c-0.105-0.159-0.135-0.322-0.09-0.49
			c0.045-0.168,0.192-0.335,0.442-0.501l1.413-0.937l-8.308-12.528l-1.413,0.937c-0.25,0.166-0.461,0.237-0.633,0.212
			c-0.172-0.024-0.311-0.115-0.416-0.273s-0.135-0.321-0.09-0.49c0.044-0.167,0.192-0.334,0.442-0.5l11.042-7.322l2.396,3.613
			c0.167,0.251,0.237,0.462,0.213,0.634s-0.115,0.311-0.273,0.416c-0.159,0.105-0.322,0.135-0.489,0.09
			c-0.168-0.045-0.334-0.192-0.501-0.443l-1.699-2.563l-7.527,4.992l3.624,5.464l3.764-2.496l-0.788-1.188
			c-0.166-0.25-0.234-0.463-0.206-0.637c0.028-0.175,0.122-0.315,0.28-0.42c0.15-0.099,0.312-0.127,0.483-0.085
			c0.171,0.041,0.34,0.188,0.506,0.438l2.272,3.426c0.166,0.25,0.234,0.463,0.207,0.638c-0.028,0.175-0.118,0.312-0.268,0.411
			c-0.158,0.105-0.323,0.137-0.495,0.095c-0.171-0.042-0.341-0.188-0.506-0.438l-0.788-1.188L-1666.167,561.99z"/>
		<path fill="#939598" d="M-1649.222,541.375l-0.232-0.35c-0.166-0.251-0.237-0.461-0.212-0.633
			c0.023-0.172,0.115-0.311,0.273-0.416c0.158-0.105,0.321-0.135,0.489-0.09c0.167,0.045,0.334,0.191,0.5,0.442l1.774,2.675
			c0.166,0.251,0.237,0.462,0.213,0.634c-0.024,0.172-0.115,0.31-0.273,0.415c-0.15,0.099-0.307,0.131-0.469,0.094
			c-0.162-0.035-0.322-0.164-0.479-0.384c-0.506-0.672-1.284-1.063-2.334-1.17c-1.05-0.108-2.125,0.203-3.225,0.933
			c-1.159,0.768-1.882,1.677-2.17,2.726c-0.288,1.05-0.164,1.979,0.372,2.787c0.277,0.417,0.625,0.733,1.042,0.947
			c0.418,0.214,0.856,0.323,1.314,0.326c0.458,0.002,0.93-0.065,1.416-0.201c0.486-0.136,1.201-0.415,2.145-0.837
			c1.581-0.712,2.721-1.127,3.424-1.244c0.941-0.156,1.787-0.069,2.539,0.259c0.753,0.329,1.389,0.886,1.909,1.67
			c0.796,1.2,0.995,2.542,0.598,4.023c-0.398,1.481-1.41,2.762-3.035,3.84c-1.826,1.21-3.663,1.608-5.513,1.188l0.398,0.601
			c0.166,0.25,0.236,0.461,0.212,0.633c-0.023,0.172-0.115,0.31-0.273,0.415c-0.15,0.1-0.311,0.129-0.483,0.086
			c-0.172-0.042-0.34-0.188-0.506-0.438l-1.924-2.901c-0.171-0.258-0.245-0.473-0.221-0.645s0.115-0.311,0.273-0.416
			c0.15-0.1,0.307-0.13,0.469-0.093c0.162,0.036,0.322,0.164,0.48,0.384c0.55,0.739,1.423,1.165,2.62,1.277
			c1.197,0.113,2.454-0.268,3.771-1.141c1.317-0.874,2.139-1.892,2.465-3.056s0.19-2.197-0.407-3.097
			c-0.365-0.551-0.835-0.944-1.412-1.181c-0.576-0.235-1.235-0.288-1.976-0.156c-0.516,0.091-1.479,0.448-2.891,1.071
			c-1.936,0.864-3.486,1.25-4.651,1.158c-1.165-0.091-2.115-0.691-2.85-1.8c-0.729-1.101-0.918-2.338-0.563-3.714
			c0.354-1.375,1.252-2.542,2.694-3.498C-1652.465,541.526-1650.895,541.151-1649.222,541.375z"/>
		<path fill="#939598" d="M-1635.135,532.033l-0.232-0.35c-0.166-0.251-0.237-0.461-0.213-0.634
			c0.024-0.172,0.115-0.311,0.273-0.416c0.158-0.105,0.322-0.134,0.489-0.09c0.167,0.045,0.334,0.192,0.5,0.443l1.774,2.675
			c0.166,0.251,0.236,0.461,0.212,0.633c-0.024,0.172-0.115,0.31-0.273,0.415c-0.15,0.1-0.306,0.131-0.468,0.094
			c-0.162-0.035-0.322-0.164-0.479-0.383c-0.506-0.673-1.284-1.063-2.334-1.17c-1.049-0.108-2.124,0.203-3.225,0.932
			c-1.159,0.769-1.882,1.677-2.171,2.727c-0.288,1.05-0.164,1.979,0.372,2.787c0.277,0.417,0.625,0.733,1.042,0.947
			c0.418,0.215,0.856,0.324,1.314,0.327c0.458,0.001,0.93-0.065,1.416-0.201c0.486-0.136,1.201-0.416,2.145-0.837
			c1.581-0.712,2.722-1.127,3.424-1.244c0.941-0.156,1.788-0.069,2.539,0.259c0.753,0.329,1.389,0.886,1.909,1.67
			c0.796,1.2,0.995,2.542,0.598,4.023c-0.398,1.481-1.409,2.762-3.035,3.84c-1.825,1.211-3.663,1.608-5.513,1.188l0.398,0.601
			c0.166,0.25,0.236,0.462,0.212,0.634s-0.115,0.31-0.273,0.415c-0.15,0.099-0.311,0.128-0.483,0.086s-0.341-0.188-0.506-0.438
			l-1.924-2.901c-0.171-0.258-0.245-0.473-0.221-0.645c0.024-0.172,0.115-0.311,0.273-0.416c0.15-0.1,0.307-0.13,0.468-0.094
			c0.163,0.036,0.322,0.164,0.48,0.384c0.55,0.739,1.423,1.165,2.621,1.277c1.197,0.113,2.454-0.268,3.771-1.142
			c1.317-0.873,2.139-1.892,2.465-3.056s0.19-2.197-0.407-3.097c-0.365-0.551-0.835-0.944-1.412-1.18
			c-0.576-0.235-1.235-0.288-1.976-0.156c-0.516,0.09-1.479,0.448-2.891,1.07c-1.936,0.865-3.486,1.25-4.651,1.158
			c-1.165-0.091-2.114-0.691-2.85-1.8c-0.729-1.101-0.918-2.338-0.563-3.713c0.354-1.375,1.252-2.542,2.694-3.498
			C-1638.377,532.184-1636.808,531.81-1635.135,532.033z"/>
	</g>
	<g>
		<path fill="#D1D3D4" d="M-1547.435,484.523c-0.672-1.249-1.914-3.373-3.723-6.372c-1.81-2.999-3.195-5.223-4.155-6.674
			c0.557-0.354,1.037-0.666,1.438-0.934c0.401-0.268,0.826-0.561,1.274-0.878c0.478,0.941,1.13,2.098,1.957,3.468
			c0.527-0.523,0.957-0.923,1.288-1.204c0.332-0.28,0.673-0.537,1.026-0.772c0.97-0.648,1.89-1.041,2.759-1.181
			c0.869-0.137,1.741,0.015,2.616,0.453c0.875,0.439,1.649,1.164,2.322,2.171c0.471,0.704,0.828,1.456,1.071,2.255
			c0.244,0.799,0.338,1.589,0.285,2.372c-0.054,0.782-0.284,1.484-0.691,2.104c-0.407,0.621-0.944,1.154-1.612,1.6
			c-0.321,0.215-0.639,0.384-0.953,0.509c-0.314,0.125-0.625,0.209-0.93,0.253c-0.307,0.043-0.6,0.052-0.881,0.025
			c-0.281-0.027-0.532-0.074-0.751-0.141c-0.22-0.069-0.499-0.182-0.837-0.34l1.013,1.604c-0.516,0.327-0.919,0.587-1.21,0.781
			C-1546.353,483.773-1546.787,484.073-1547.435,484.523z M-1549.551,475.14l0.985,1.635c0.208,0.353,0.42,0.69,0.635,1.012
			c0.512,0.767,0.995,1.319,1.447,1.655c0.453,0.338,0.947,0.501,1.484,0.491c0.537-0.01,1.04-0.172,1.508-0.485
			c0.511-0.342,0.863-0.776,1.055-1.302c0.193-0.526,0.212-1.122,0.057-1.788c-0.155-0.665-0.429-1.292-0.821-1.878
			c-0.565-0.848-1.246-1.377-2.038-1.59c-0.792-0.212-1.626-0.026-2.501,0.558c-0.284,0.189-0.564,0.411-0.841,0.663
			C-1548.859,474.362-1549.182,474.706-1549.551,475.14z"/>
		<path fill="#D1D3D4" d="M-1536.57,477.265c-0.606-1.107-1.749-3.059-3.427-5.859c-1.679-2.799-3.162-5.195-4.448-7.188
			c0.651-0.417,1.114-0.717,1.386-0.899c0.365-0.244,0.807-0.547,1.325-0.912l2.039,3.533l4.721,7.765l1.115,1.75
			c-0.516,0.327-0.95,0.608-1.303,0.843C-1535.28,476.375-1535.749,476.699-1536.57,477.265z"/>
		<path fill="#D1D3D4" d="M-1533.871,461.499c0.711-0.475,1.464-0.824,2.259-1.047c0.794-0.222,1.559-0.276,2.292-0.163
			c0.734,0.114,1.416,0.396,2.047,0.846s1.17,1.009,1.616,1.676c0.471,0.705,0.805,1.466,1.001,2.283
			c0.197,0.816,0.227,1.617,0.089,2.401c-0.137,0.785-0.468,1.524-0.993,2.218c-0.524,0.695-1.172,1.3-1.945,1.816
			c-0.717,0.479-1.47,0.828-2.259,1.047c-0.789,0.218-1.554,0.266-2.296,0.146c-0.742-0.121-1.437-0.408-2.084-0.862
			c-0.646-0.452-1.193-1.012-1.64-1.681c-0.454-0.68-0.779-1.401-0.976-2.163c-0.196-0.763-0.226-1.54-0.087-2.33
			c0.138-0.79,0.478-1.557,1.017-2.302C-1535.29,462.639-1534.637,462.011-1533.871,461.499z M-1532.594,463.409
			c-0.536,0.358-0.927,0.81-1.174,1.354c-0.246,0.546-0.3,1.146-0.159,1.804c0.14,0.656,0.415,1.292,0.824,1.904
			c0.359,0.537,0.764,0.96,1.214,1.268c0.45,0.307,0.955,0.462,1.513,0.464c0.559,0.002,1.103-0.173,1.633-0.527
			c0.542-0.362,0.928-0.814,1.158-1.357c0.23-0.542,0.274-1.144,0.131-1.805c-0.143-0.66-0.424-1.306-0.846-1.937
			c-0.343-0.513-0.734-0.926-1.175-1.239c-0.441-0.314-0.936-0.471-1.484-0.472
			C-1531.507,462.866-1532.052,463.047-1532.594,463.409z"/>
		<path fill="#D1D3D4" d="M-1519.737,468.849c1.697-0.473,3.055-1.048,4.075-1.73c0.39-0.26,0.726-0.554,1.007-0.881
			c0.282-0.327,0.48-0.661,0.595-0.999c0.113-0.339,0.13-0.708,0.052-1.105c-0.078-0.399-0.233-0.817-0.464-1.258
			c-0.23-0.438-0.612-1.083-1.144-1.932c-0.022,0.489-0.068,0.889-0.138,1.199s-0.191,0.628-0.362,0.953
			c-0.172,0.325-0.408,0.652-0.706,0.981c-0.299,0.33-0.646,0.626-1.042,0.891c-0.544,0.364-1.117,0.624-1.719,0.779
			c-0.602,0.158-1.215,0.18-1.839,0.069c-0.624-0.11-1.22-0.376-1.787-0.797c-0.568-0.422-1.052-0.932-1.453-1.531
			c-0.574-0.859-0.955-1.78-1.142-2.764c-0.188-0.983-0.133-1.932,0.164-2.847c0.297-0.913,0.741-1.702,1.331-2.364
			c0.59-0.664,1.321-1.285,2.193-1.868c0.482-0.322,1.049-0.658,1.701-1.009c0.651-0.35,1.541-0.772,2.668-1.267l1.749,3.081
			l2.263,3.809l2.148,3.376c0.233,0.39,0.429,0.783,0.588,1.182c0.159,0.398,0.252,0.792,0.279,1.181
			c0.028,0.389-0.01,0.774-0.113,1.155c-0.103,0.381-0.266,0.743-0.489,1.084c-0.223,0.343-0.537,0.71-0.939,1.104
			c-0.402,0.395-0.867,0.767-1.392,1.118c-0.563,0.376-1.228,0.767-1.994,1.171s-1.642,0.788-2.625,1.15L-1519.737,468.849z
			 M-1519.335,454.792c-0.612,0.248-1.146,0.525-1.604,0.831c-0.804,0.537-1.371,1.128-1.7,1.774
			c-0.329,0.645-0.448,1.344-0.355,2.098c0.092,0.753,0.349,1.446,0.771,2.078c0.311,0.464,0.686,0.838,1.125,1.122
			c0.44,0.284,0.912,0.405,1.417,0.364c0.504-0.042,0.979-0.212,1.424-0.509c0.315-0.211,0.577-0.457,0.787-0.74
			c0.209-0.283,0.356-0.601,0.443-0.953c0.085-0.354,0.112-0.739,0.08-1.155c-0.033-0.417-0.141-0.839-0.324-1.268
			c-0.184-0.428-0.448-0.941-0.794-1.539C-1518.411,456.295-1518.834,455.594-1519.335,454.792z"/>
		<path fill="#D1D3D4" d="M-1510.633,459.936c-0.272-0.46-0.794-1.315-1.565-2.562l1.422-0.923c0.124-0.083,0.524-0.36,1.202-0.83
			c0.271,0.472,0.549,0.942,0.837,1.413l0.7,1.168l-1.228,0.793C-1509.313,459.027-1509.77,459.342-1510.633,459.936z"/>
		<path fill="#D1D3D4" d="M-1506.788,457.367c-0.796-1.497-1.732-3.153-2.806-4.966c-1.073-1.813-2.066-3.416-2.979-4.81
			c0.578-0.367,1.037-0.665,1.377-0.892c0.402-0.269,0.826-0.56,1.269-0.875l0.95,1.646c0.01-0.399,0.034-0.729,0.072-0.987
			s0.118-0.539,0.241-0.844c0.123-0.305,0.281-0.59,0.475-0.854c0.195-0.264,0.433-0.531,0.714-0.799
			c0.281-0.269,0.595-0.518,0.941-0.75c0.55-0.368,1.125-0.65,1.721-0.849c0.597-0.197,1.151-0.247,1.663-0.151
			c0.511,0.096,0.936,0.29,1.275,0.583c0.338,0.292,0.642,0.639,0.91,1.041c0.112,0.168,0.28,0.438,0.505,0.817l2.516,4.18
			c0.351,0.579,0.737,1.188,1.157,1.829c-0.498,0.315-0.92,0.588-1.267,0.819c-0.471,0.314-0.94,0.638-1.408,0.968
			c-0.31-0.57-0.875-1.55-1.694-2.939c-0.819-1.387-1.374-2.298-1.664-2.73c-0.326-0.489-0.666-0.83-1.019-1.024
			c-0.352-0.193-0.742-0.259-1.169-0.196c-0.428,0.062-0.831,0.219-1.207,0.47c-0.371,0.248-0.669,0.55-0.896,0.906
			c-0.226,0.357-0.366,0.75-0.418,1.179c-0.062,0.443-0.024,0.914,0.113,1.413c0.147,0.528,0.519,1.312,1.116,2.352
			c0.528,0.927,1.27,2.144,2.224,3.652c-0.485,0.307-0.92,0.587-1.304,0.844C-1505.77,456.66-1506.239,456.983-1506.788,457.367z"/>
		<path fill="#D1D3D4" d="M-1499.721,441.996c-0.211-0.502-0.366-0.851-0.463-1.044c-0.099-0.194-0.242-0.493-0.43-0.895
			c0.709-0.759,1.358-1.393,1.947-1.903c0.589-0.511,1.184-0.966,1.783-1.367c0.68-0.454,1.357-0.793,2.031-1.015
			c0.674-0.223,1.288-0.267,1.84-0.136c0.553,0.132,1.046,0.521,1.48,1.171c0.235,0.353,0.786,1.283,1.653,2.793
			c0.866,1.508,1.804,3.039,2.814,4.59c-0.479,0.303-0.917,0.585-1.313,0.85c-0.377,0.252-0.815,0.555-1.314,0.905
			c-0.418-0.801-0.931-1.711-1.538-2.728l-1.421-2.391c-0.131,0.313-0.238,0.541-0.321,0.685c-0.082,0.145-0.184,0.295-0.303,0.45
			c-0.12,0.157-0.338,0.419-0.656,0.787c-0.317,0.37-0.567,0.672-0.748,0.91c-0.182,0.237-0.333,0.47-0.453,0.698
			c-0.121,0.228-0.204,0.449-0.249,0.662c-0.046,0.213-0.051,0.41-0.017,0.588c0.034,0.179,0.105,0.348,0.212,0.509
			c0.173,0.26,0.399,0.433,0.677,0.52c0.277,0.088,0.555,0.092,0.833,0.014c0.278-0.079,0.572-0.221,0.881-0.428
			c0.198-0.132,0.396-0.287,0.595-0.464c0.199-0.178,0.442-0.454,0.731-0.824c0.105,0.439,0.305,1.066,0.599,1.88
			c-0.39,0.367-0.708,0.647-0.955,0.839c-0.247,0.192-0.482,0.362-0.705,0.511c-0.779,0.521-1.489,0.843-2.13,0.968
			c-0.641,0.124-1.233,0.036-1.777-0.262c-0.544-0.299-0.971-0.68-1.28-1.144c-0.178-0.267-0.307-0.559-0.388-0.881
			c-0.081-0.322-0.104-0.651-0.068-0.987c0.035-0.336,0.127-0.7,0.278-1.091c0.15-0.391,0.431-0.861,0.843-1.409
			c0.412-0.548,0.997-1.213,1.753-1.997c0.202-0.206,0.406-0.43,0.612-0.67c0.207-0.24,0.362-0.445,0.468-0.615
			c0.106-0.17,0.179-0.345,0.218-0.527c0.039-0.183,0.045-0.351,0.02-0.503c-0.026-0.152-0.08-0.29-0.163-0.415
			c-0.161-0.241-0.376-0.392-0.645-0.454c-0.27-0.062-0.552-0.041-0.845,0.062c-0.294,0.102-0.593,0.255-0.896,0.458
			C-1497.655,439.449-1498.719,440.549-1499.721,441.996z"/>
		<path fill="#D1D3D4" d="M-1483.163,441.583c-1.28-1.031-4.479-3.441-9.597-7.23c0.553-0.35,1.027-0.659,1.423-0.923
			c0.421-0.281,0.847-0.574,1.278-0.881l6.9,5.632l-0.242-1.005l-1.451-6.697c-0.066-0.313-0.159-0.72-0.279-1.223
			c0.514-0.324,0.968-0.619,1.363-0.883c0.4-0.268,0.854-0.579,1.356-0.934l0.677,4.284l1.127,6.423l0.308,1.523
			c-0.565,0.36-1.036,0.665-1.413,0.917C-1482.106,440.85-1482.59,441.184-1483.163,441.583z"/>
		<path fill="#D1D3D4" d="M-1469.395,429.341c0.163,0.418,0.486,1.149,0.97,2.195c-0.573,0.589-1.072,1.061-1.496,1.416
			c-0.424,0.354-0.869,0.687-1.332,0.996c-0.81,0.541-1.589,0.945-2.335,1.213c-0.748,0.266-1.506,0.346-2.274,0.24
			c-0.77-0.108-1.477-0.396-2.123-0.868c-0.645-0.471-1.197-1.049-1.655-1.736c-0.507-0.759-0.866-1.583-1.078-2.475
			c-0.21-0.891-0.228-1.724-0.052-2.498c0.176-0.774,0.507-1.46,0.993-2.058c0.486-0.597,1.063-1.119,1.731-1.564
			c0.63-0.421,1.283-0.744,1.957-0.966c0.674-0.223,1.323-0.284,1.949-0.185c0.625,0.1,1.209,0.333,1.753,0.696
			c0.543,0.365,1.021,0.856,1.433,1.473c0.193,0.29,0.362,0.61,0.506,0.958l-6.791,4.551c0.14,0.238,0.256,0.424,0.347,0.561
			c0.276,0.414,0.601,0.746,0.975,0.997c0.374,0.251,0.776,0.407,1.209,0.467c0.433,0.058,0.876,0.02,1.33-0.118
			s0.862-0.329,1.227-0.572c0.427-0.285,0.858-0.64,1.294-1.065C-1470.419,430.575-1469.933,430.022-1469.395,429.341z
			 M-1477.89,429.598l4.347-2.891c-0.198-0.296-0.353-0.508-0.466-0.638c-0.113-0.129-0.263-0.262-0.449-0.401
			c-0.186-0.138-0.382-0.24-0.585-0.303c-0.204-0.064-0.411-0.093-0.621-0.086c-0.21,0.007-0.43,0.051-0.656,0.132
			c-0.228,0.081-0.453,0.195-0.676,0.344c-0.26,0.173-0.485,0.382-0.675,0.625c-0.191,0.243-0.337,0.51-0.438,0.801
			c-0.102,0.29-0.151,0.573-0.15,0.848c0,0.276,0.029,0.522,0.084,0.739C-1478.12,428.984-1478.025,429.26-1477.89,429.598z"/>
		<path fill="#D1D3D4" d="M-1466.722,430.599l-2.675-4.584l-1.636-2.608c-0.339-0.534-0.686-1.067-1.041-1.599
			c-0.062-0.093-0.265-0.382-0.607-0.869c0.583-0.371,1.011-0.648,1.283-0.83c0.315-0.211,0.729-0.496,1.24-0.856l0.827,1.339
			c0.012-0.491,0.046-0.873,0.104-1.149c0.057-0.275,0.15-0.541,0.279-0.796c0.129-0.256,0.299-0.5,0.511-0.731
			c0.212-0.231,0.451-0.435,0.717-0.612c0.247-0.165,0.521-0.304,0.822-0.416c0.384,0.575,0.899,1.287,1.546,2.134
			c-0.431,0.145-0.795,0.316-1.091,0.515c-0.359,0.239-0.639,0.506-0.842,0.797c-0.203,0.292-0.34,0.622-0.414,0.987
			c-0.073,0.366-0.072,0.758,0,1.174c0.056,0.338,0.195,0.733,0.416,1.184c0.167,0.354,0.494,0.931,0.98,1.733
			c0.487,0.801,0.983,1.579,1.487,2.333c0.194,0.29,0.447,0.649,0.759,1.075c-0.479,0.303-0.914,0.583-1.304,0.844
			C-1465.744,429.919-1466.198,430.232-1466.722,430.599z"/>
		<path fill="#D1D3D4" d="M-1460.234,426.265c-0.272-0.461-0.794-1.315-1.565-2.562l1.422-0.923c0.124-0.083,0.524-0.36,1.202-0.83
			c0.271,0.472,0.549,0.942,0.837,1.413l0.7,1.168l-1.228,0.793C-1458.915,425.356-1459.371,425.67-1460.234,426.265z"/>
		<path fill="#D1D3D4" d="M-1450.364,416.573c0.138,0.273,0.284,0.592,0.437,0.955c0.153,0.362,0.354,0.804,0.604,1.326
			c-0.748,0.794-1.551,1.479-2.411,2.053c-0.5,0.334-1.014,0.611-1.54,0.828c-0.525,0.217-1.067,0.34-1.625,0.368
			s-1.119-0.051-1.682-0.238c-0.563-0.187-1.105-0.507-1.626-0.958s-0.978-0.972-1.37-1.559c-0.521-0.779-0.896-1.611-1.124-2.495
			c-0.229-0.885-0.254-1.716-0.075-2.492c0.178-0.776,0.508-1.443,0.989-2.001s1.083-1.08,1.806-1.563
			c0.402-0.268,0.832-0.521,1.29-0.761c0.457-0.238,1.024-0.481,1.701-0.727l1.496,1.937c-1.13,0.299-2.038,0.678-2.723,1.136
			c-0.419,0.28-0.77,0.617-1.047,1.008c-0.278,0.392-0.449,0.831-0.514,1.316c-0.064,0.485-0.019,0.967,0.135,1.445
			c0.155,0.479,0.372,0.927,0.653,1.348c0.392,0.587,0.823,1.036,1.292,1.344c0.469,0.307,1.004,0.431,1.605,0.368
			c0.602-0.062,1.186-0.282,1.753-0.662c0.278-0.186,0.592-0.446,0.942-0.784C-1451.045,417.428-1450.701,417.031-1450.364,416.573z
			"/>
		<path fill="#D1D3D4" d="M-1449.369,405.043c0.711-0.475,1.464-0.824,2.259-1.047c0.795-0.222,1.559-0.276,2.292-0.163
			c0.733,0.114,1.416,0.396,2.047,0.846c0.632,0.45,1.17,1.009,1.616,1.676c0.471,0.705,0.805,1.466,1.001,2.283
			c0.197,0.816,0.227,1.617,0.089,2.401c-0.137,0.786-0.468,1.525-0.993,2.218c-0.524,0.695-1.172,1.3-1.945,1.817
			c-0.717,0.479-1.47,0.828-2.259,1.047c-0.789,0.218-1.554,0.266-2.296,0.146c-0.742-0.121-1.437-0.408-2.084-0.862
			c-0.647-0.452-1.193-1.012-1.64-1.681c-0.454-0.68-0.779-1.401-0.976-2.163c-0.196-0.763-0.226-1.54-0.087-2.33
			s0.478-1.557,1.017-2.302C-1450.788,406.184-1450.135,405.555-1449.369,405.043z M-1448.092,406.953
			c-0.536,0.358-0.927,0.81-1.173,1.354c-0.246,0.545-0.3,1.146-0.159,1.804c0.141,0.656,0.415,1.292,0.824,1.904
			c0.359,0.537,0.764,0.96,1.215,1.268c0.45,0.307,0.955,0.462,1.513,0.464c0.559,0.002,1.103-0.173,1.632-0.527
			c0.542-0.362,0.928-0.814,1.158-1.357c0.23-0.542,0.274-1.144,0.131-1.805c-0.143-0.661-0.424-1.306-0.846-1.937
			c-0.343-0.513-0.734-0.926-1.175-1.239c-0.441-0.314-0.936-0.471-1.484-0.472C-1447.005,406.411-1447.55,406.591-1448.092,406.953
			z"/>
		<path fill="#D1D3D4" d="M-1437.191,410.87c-0.616-1.109-1.574-2.74-2.875-4.894c-1.3-2.152-2.303-3.759-3.009-4.816
			c0.534-0.337,0.963-0.616,1.292-0.835c0.376-0.252,0.781-0.531,1.212-0.838l0.926,1.542c0.003-0.423,0.026-0.78,0.068-1.072
			c0.042-0.291,0.141-0.602,0.298-0.929c0.156-0.328,0.379-0.654,0.668-0.977c0.289-0.324,0.619-0.608,0.99-0.856
			c0.278-0.186,0.565-0.339,0.859-0.46c0.294-0.121,0.58-0.205,0.858-0.251c0.277-0.047,0.533-0.058,0.768-0.035
			c0.234,0.022,0.453,0.074,0.66,0.155c0.207,0.083,0.47,0.229,0.792,0.444c-0.009-0.308-0.004-0.572,0.013-0.794
			c0.017-0.222,0.07-0.473,0.158-0.756c0.088-0.282,0.215-0.555,0.379-0.818c0.165-0.262,0.375-0.52,0.629-0.775
			c0.254-0.254,0.539-0.487,0.854-0.698c0.538-0.359,1.104-0.61,1.698-0.751c0.593-0.142,1.153-0.114,1.679,0.084
			c0.526,0.199,0.977,0.579,1.353,1.141c0.199,0.297,0.468,0.747,0.81,1.351c0.341,0.604,0.917,1.577,1.725,2.92
			c0.808,1.341,1.447,2.371,1.916,3.084c-0.46,0.291-0.864,0.55-1.211,0.782c-0.408,0.273-0.884,0.6-1.427,0.98
			c-0.477-0.834-0.982-1.704-1.515-2.61l-1.307-2.197c-0.329-0.559-0.617-1.023-0.865-1.395c-0.294-0.441-0.588-0.73-0.878-0.863
			c-0.291-0.134-0.575-0.178-0.853-0.132c-0.277,0.047-0.55,0.158-0.815,0.336c-0.278,0.186-0.495,0.407-0.65,0.664
			c-0.155,0.256-0.251,0.568-0.289,0.934c-0.037,0.366-0.003,0.742,0.102,1.125c0.104,0.384,0.321,0.876,0.65,1.473
			c0.329,0.599,0.787,1.369,1.372,2.31l1.658,2.621c-0.522,0.332-0.954,0.61-1.294,0.837c-0.341,0.228-0.791,0.538-1.353,0.931
			c-0.275-0.504-0.864-1.519-1.767-3.044c-0.903-1.524-1.525-2.543-1.869-3.058c-0.181-0.271-0.357-0.488-0.526-0.646
			c-0.17-0.161-0.377-0.28-0.624-0.362c-0.246-0.08-0.486-0.102-0.719-0.063s-0.467,0.137-0.702,0.294
			c-0.433,0.289-0.717,0.685-0.854,1.189c-0.138,0.503-0.124,1.043,0.043,1.62c0.167,0.578,0.676,1.577,1.527,2.998
			c0.852,1.42,1.548,2.535,2.089,3.345c-0.576,0.367-1.009,0.647-1.298,0.84C-1436.171,410.161-1436.62,410.471-1437.191,410.87z"/>
		<path fill="#D1D3D4" d="M-1421.386,406.467l-0.946-8.461l-1.305-11.025l-0.408-3.202c0.41-0.256,0.693-0.436,0.848-0.54
			c0.186-0.124,0.457-0.314,0.814-0.57l2.426,20.135l0.352,2.474c-0.373,0.232-0.659,0.413-0.856,0.545
			C-1420.635,405.938-1420.943,406.154-1421.386,406.467z"/>
		<path fill="#D1D3D4" d="M-1417.371,378.998c0.977-0.653,1.954-1,2.93-1.045c0.977-0.044,1.964,0.266,2.963,0.932
			c0.998,0.665,1.909,1.612,2.73,2.843c0.648,0.971,1.178,2.017,1.587,3.139c0.409,1.121,0.613,2.13,0.611,3.023
			c0,0.896-0.247,1.755-0.738,2.579c-0.491,0.825-1.148,1.511-1.97,2.061c-0.792,0.529-1.6,0.849-2.426,0.957
			c-0.826,0.109-1.618,0.018-2.377-0.276c-0.759-0.292-1.446-0.731-2.062-1.318c-0.615-0.586-1.167-1.245-1.654-1.974
			c-0.673-1.008-1.218-2.078-1.636-3.212c-0.418-1.133-0.624-2.174-0.617-3.123c0.006-0.947,0.255-1.817,0.745-2.609
			C-1418.794,380.181-1418.156,379.522-1417.371,378.998z M-1416.157,380.964c-0.235,0.157-0.436,0.357-0.6,0.601
			c-0.164,0.245-0.282,0.544-0.353,0.901c-0.071,0.356-0.081,0.724-0.03,1.101c0.051,0.378,0.154,0.808,0.311,1.29
			c0.157,0.483,0.389,1.025,0.698,1.628s0.658,1.196,1.046,1.778c0.563,0.841,1.105,1.47,1.63,1.885
			c0.523,0.416,1.051,0.656,1.583,0.721c0.532,0.065,1.018-0.048,1.458-0.342c0.242-0.162,0.445-0.368,0.61-0.616
			c0.166-0.249,0.278-0.586,0.339-1.012c0.061-0.426,0.015-0.957-0.138-1.594c-0.152-0.636-0.388-1.289-0.709-1.956
			c-0.321-0.668-0.689-1.315-1.107-1.94c-0.574-0.86-1.13-1.514-1.667-1.961c-0.536-0.447-1.07-0.714-1.604-0.801
			C-1415.223,380.56-1415.711,380.666-1416.157,380.964z"/>
		<path fill="#D1D3D4" d="M-1399.588,385.747c-0.55-1.009-1.203-2.139-1.957-3.387l-2.303-3.826
			c-0.782-1.304-1.466-2.414-2.055-3.335c-0.162,0.358-0.284,0.634-0.364,0.827c-0.081,0.192-0.276,0.679-0.585,1.458
			c-0.23-0.412-0.497-0.868-0.798-1.365c-0.302-0.499-0.54-0.878-0.714-1.139c0.134-0.267,0.304-0.621,0.511-1.059
			c0.207-0.44,0.333-0.717,0.381-0.833s0.106-0.283,0.177-0.498c0.373-0.231,0.82-0.521,1.34-0.868
			c0.507-0.339,0.982-0.666,1.426-0.98l0.741,1.329c0.169,0.307,0.421,0.743,0.753,1.308l4.557,7.618l0.709,1.122
			c0.147,0.233,0.299,0.467,0.456,0.702l0.66,0.967c-0.429,0.27-0.892,0.569-1.387,0.9
			C-1398.616,385.071-1399.132,385.425-1399.588,385.747z"/>
		<path fill="#D1D3D4" d="M-1396.104,364.79c0.977-0.653,1.954-1,2.93-1.045c0.977-0.044,1.964,0.266,2.963,0.932
			c0.998,0.665,1.909,1.612,2.73,2.842c0.648,0.971,1.177,2.017,1.587,3.139c0.409,1.121,0.613,2.129,0.611,3.023
			c0,0.896-0.247,1.755-0.738,2.579c-0.491,0.825-1.148,1.511-1.97,2.061c-0.791,0.529-1.6,0.849-2.425,0.957
			c-0.826,0.109-1.618,0.017-2.378-0.276c-0.759-0.292-1.446-0.731-2.061-1.318c-0.615-0.586-1.167-1.245-1.654-1.974
			c-0.673-1.008-1.218-2.078-1.636-3.212s-0.624-2.174-0.617-3.123c0.006-0.946,0.254-1.817,0.745-2.609
			C-1397.527,365.973-1396.89,365.314-1396.104,364.79z M-1394.891,366.755c-0.235,0.157-0.435,0.357-0.599,0.601
			c-0.164,0.245-0.282,0.544-0.353,0.901c-0.071,0.356-0.081,0.724-0.03,1.101c0.051,0.378,0.154,0.808,0.311,1.29
			c0.157,0.483,0.389,1.025,0.698,1.628s0.658,1.196,1.046,1.778c0.563,0.841,1.105,1.47,1.629,1.885
			c0.524,0.415,1.052,0.656,1.584,0.721c0.532,0.065,1.018-0.049,1.458-0.342c0.242-0.162,0.444-0.368,0.61-0.617
			c0.166-0.249,0.278-0.585,0.339-1.012c0.06-0.426,0.015-0.956-0.138-1.593c-0.152-0.636-0.388-1.289-0.709-1.956
			c-0.321-0.668-0.689-1.314-1.107-1.939c-0.574-0.86-1.13-1.514-1.667-1.961c-0.536-0.447-1.071-0.714-1.604-0.8
			C-1393.956,366.351-1394.445,366.458-1394.891,366.755z"/>
		<path fill="#D1D3D4" d="M-1377.604,368.257c0.153,0.39,0.457,1.099,0.912,2.127c-0.441,0.464-0.8,0.811-1.075,1.041
			c-0.276,0.229-0.544,0.43-0.804,0.604c-0.458,0.306-0.896,0.537-1.315,0.691c-0.42,0.155-0.82,0.202-1.201,0.139
			c-0.381-0.062-0.712-0.212-0.992-0.45c-0.28-0.238-0.525-0.515-0.736-0.83c-0.054-0.081-0.122-0.19-0.207-0.332
			c-0.085-0.14-0.354-0.596-0.806-1.366l-2.365-4l-1.335,0.892c-0.217-0.392-0.588-1.007-1.113-1.847l1.397-0.933
			c-0.203-0.382-0.572-1.016-1.109-1.9l0.954-0.945c0.201-0.197,0.575-0.594,1.124-1.194c0.513,0.864,1.01,1.664,1.491,2.396
			l2.357-1.575c0.515,0.864,0.892,1.475,1.131,1.834l-2.365,1.58c1.551,2.604,2.459,4.102,2.723,4.498
			c0.256,0.384,0.496,0.652,0.72,0.807c0.224,0.154,0.46,0.216,0.708,0.185c0.247-0.031,0.476-0.117,0.687-0.257
			c0.155-0.103,0.309-0.224,0.461-0.363C-1378.209,368.92-1377.956,368.653-1377.604,368.257z"/>
		<path fill="#D1D3D4" d="M-1382.859,358.596c-0.401-0.653-0.715-1.15-0.941-1.49l-0.199-0.297c0.571-0.364,1.033-0.663,1.385-0.898
			c0.482-0.322,0.926-0.629,1.332-0.917c0.084,0.167,0.189,0.351,0.316,0.553l0.778,1.265c-0.479,0.302-0.915,0.584-1.311,0.849
			C-1381.895,357.925-1382.349,358.237-1382.859,358.596z M-1375.988,369.98c-0.525-0.99-0.978-1.809-1.357-2.46
			c-0.598-1.031-1.305-2.208-2.122-3.531c-0.815-1.323-1.603-2.573-2.36-3.749c0.611-0.389,1.066-0.685,1.367-0.886
			c0.276-0.185,0.722-0.49,1.333-0.919c0.635,1.132,1.253,2.204,1.855,3.215c0.602,1.011,1.313,2.155,2.131,3.431
			c0.818,1.277,1.474,2.284,1.966,3.019c-0.572,0.365-1.028,0.66-1.368,0.887C-1374.865,369.203-1375.347,369.534-1375.988,369.98z"
			/>
		<path fill="#D1D3D4" d="M-1371.855,367.219c-0.616-1.108-1.574-2.74-2.875-4.894c-1.3-2.153-2.304-3.759-3.01-4.817
			c0.534-0.337,0.964-0.616,1.292-0.835c0.377-0.252,0.782-0.53,1.212-0.838l0.926,1.542c0.003-0.423,0.026-0.78,0.068-1.072
			c0.042-0.291,0.141-0.602,0.298-0.929s0.379-0.654,0.668-0.977c0.289-0.324,0.619-0.608,0.99-0.856
			c0.278-0.186,0.564-0.339,0.859-0.46c0.295-0.121,0.581-0.205,0.858-0.251c0.277-0.047,0.533-0.059,0.767-0.036
			c0.234,0.022,0.454,0.074,0.66,0.155c0.207,0.082,0.47,0.229,0.792,0.443c-0.009-0.308-0.004-0.572,0.013-0.793
			c0.017-0.222,0.069-0.474,0.158-0.756c0.088-0.282,0.215-0.554,0.379-0.818c0.165-0.261,0.374-0.52,0.628-0.775
			c0.254-0.254,0.539-0.487,0.854-0.698c0.538-0.359,1.104-0.61,1.698-0.751c0.594-0.142,1.153-0.114,1.679,0.084
			c0.526,0.199,0.977,0.579,1.353,1.142c0.199,0.297,0.468,0.747,0.809,1.351c0.341,0.604,0.917,1.577,1.725,2.919
			c0.808,1.341,1.447,2.371,1.916,3.085c-0.46,0.29-0.864,0.55-1.21,0.782c-0.409,0.273-0.884,0.601-1.427,0.98
			c-0.477-0.834-0.982-1.704-1.515-2.609l-1.307-2.198c-0.328-0.559-0.617-1.023-0.865-1.395c-0.294-0.441-0.587-0.729-0.878-0.863
			c-0.291-0.134-0.575-0.178-0.853-0.132c-0.277,0.047-0.55,0.158-0.816,0.336c-0.278,0.186-0.495,0.407-0.65,0.664
			c-0.156,0.256-0.251,0.568-0.289,0.934c-0.037,0.367-0.003,0.742,0.101,1.126c0.104,0.383,0.321,0.875,0.65,1.472
			c0.329,0.599,0.786,1.369,1.371,2.31l1.659,2.621c-0.522,0.332-0.954,0.61-1.294,0.837c-0.34,0.228-0.791,0.539-1.352,0.931
			c-0.275-0.504-0.864-1.519-1.768-3.044c-0.902-1.524-1.525-2.543-1.869-3.058c-0.181-0.271-0.357-0.488-0.526-0.646
			c-0.169-0.161-0.377-0.281-0.624-0.363c-0.246-0.08-0.486-0.102-0.718-0.063c-0.233,0.04-0.467,0.137-0.702,0.294
			c-0.433,0.289-0.717,0.686-0.854,1.189c-0.138,0.503-0.124,1.042,0.043,1.62c0.167,0.578,0.676,1.576,1.528,2.998
			c0.852,1.42,1.548,2.535,2.089,3.345c-0.576,0.368-1.009,0.647-1.299,0.841C-1370.835,366.511-1371.284,366.82-1371.855,367.219z"
			/>
		<path fill="#D1D3D4" d="M-1348.839,348.798c0.164,0.418,0.487,1.149,0.971,2.195c-0.573,0.589-1.072,1.06-1.496,1.416
			c-0.424,0.354-0.869,0.687-1.333,0.997c-0.81,0.541-1.588,0.945-2.335,1.213c-0.747,0.266-1.505,0.346-2.274,0.24
			c-0.769-0.107-1.477-0.396-2.122-0.868s-1.197-1.049-1.655-1.736c-0.507-0.759-0.866-1.584-1.078-2.475
			c-0.21-0.891-0.228-1.724-0.052-2.498c0.176-0.774,0.506-1.46,0.993-2.058c0.486-0.597,1.063-1.119,1.73-1.564
			c0.631-0.421,1.283-0.744,1.958-0.966c0.674-0.223,1.323-0.284,1.949-0.185c0.625,0.099,1.21,0.333,1.753,0.696
			c0.543,0.365,1.021,0.856,1.433,1.473c0.193,0.29,0.362,0.61,0.506,0.958l-6.791,4.551c0.141,0.238,0.256,0.424,0.347,0.561
			c0.276,0.414,0.602,0.746,0.975,0.997c0.374,0.251,0.776,0.407,1.21,0.467c0.433,0.058,0.876,0.02,1.33-0.118
			s0.862-0.329,1.227-0.573c0.427-0.285,0.858-0.64,1.294-1.064C-1349.863,350.032-1349.376,349.479-1348.839,348.798z
			 M-1357.333,349.054l4.347-2.891c-0.198-0.296-0.353-0.508-0.466-0.638c-0.113-0.129-0.263-0.262-0.449-0.401
			c-0.186-0.138-0.381-0.24-0.585-0.303c-0.204-0.064-0.411-0.093-0.621-0.086c-0.21,0.007-0.43,0.051-0.657,0.132
			c-0.228,0.081-0.453,0.195-0.676,0.344c-0.259,0.173-0.485,0.382-0.675,0.625c-0.191,0.243-0.337,0.51-0.438,0.801
			c-0.102,0.29-0.151,0.573-0.151,0.848c0.001,0.276,0.029,0.522,0.084,0.739C-1357.564,348.44-1357.468,348.717-1357.333,349.054z"
			/>
		<path fill="#D1D3D4" d="M-1346.147,350.043c-0.606-1.106-1.749-3.059-3.427-5.859c-1.679-2.799-3.162-5.195-4.448-7.188
			c0.651-0.417,1.114-0.717,1.386-0.899c0.365-0.244,0.806-0.547,1.324-0.912l2.04,3.533l4.721,7.765l1.115,1.749
			c-0.516,0.327-0.95,0.608-1.303,0.844C-1344.857,349.154-1345.326,349.478-1346.147,350.043z"/>
		<path fill="#D1D3D4" d="M-1335.056,339.589c0.164,0.418,0.486,1.15,0.97,2.195c-0.573,0.588-1.071,1.06-1.496,1.416
			c-0.424,0.354-0.869,0.687-1.333,0.997c-0.81,0.541-1.588,0.945-2.335,1.212c-0.747,0.267-1.505,0.347-2.274,0.24
			c-0.769-0.107-1.477-0.396-2.122-0.867s-1.197-1.049-1.656-1.736c-0.507-0.759-0.866-1.584-1.077-2.476
			c-0.21-0.89-0.228-1.723-0.052-2.497c0.176-0.774,0.506-1.46,0.993-2.058c0.486-0.598,1.063-1.119,1.73-1.565
			c0.631-0.421,1.283-0.744,1.958-0.965c0.674-0.223,1.323-0.284,1.949-0.185c0.625,0.1,1.21,0.333,1.753,0.696
			c0.543,0.365,1.021,0.856,1.434,1.473c0.193,0.29,0.362,0.609,0.506,0.958l-6.791,4.551c0.141,0.238,0.256,0.423,0.347,0.56
			c0.276,0.414,0.601,0.747,0.975,0.997c0.374,0.252,0.776,0.408,1.21,0.467c0.433,0.059,0.876,0.021,1.33-0.117
			c0.454-0.138,0.862-0.329,1.227-0.573c0.426-0.285,0.858-0.64,1.293-1.065C-1336.081,340.823-1335.594,340.271-1335.056,339.589z
			 M-1343.55,339.846l4.346-2.891c-0.197-0.296-0.353-0.508-0.466-0.638c-0.113-0.129-0.263-0.263-0.449-0.402
			c-0.186-0.137-0.381-0.239-0.585-0.303c-0.204-0.064-0.411-0.093-0.621-0.086c-0.21,0.007-0.429,0.051-0.656,0.132
			c-0.228,0.081-0.453,0.195-0.676,0.344c-0.26,0.173-0.485,0.382-0.675,0.625c-0.191,0.243-0.337,0.51-0.438,0.801
			c-0.102,0.29-0.151,0.573-0.15,0.848c0.001,0.276,0.029,0.522,0.084,0.739C-1343.781,339.232-1343.686,339.509-1343.55,339.846z"
			/>
		<path fill="#D1D3D4" d="M-1332.742,340.833l-1.568-1.905c0.771-0.157,1.399-0.329,1.884-0.513
			c0.484-0.185,0.903-0.396,1.255-0.631c0.353-0.236,0.621-0.476,0.806-0.72c0.186-0.245,0.282-0.488,0.291-0.73
			c0.008-0.242-0.048-0.454-0.168-0.632c-0.053-0.08-0.11-0.149-0.171-0.208c-0.061-0.057-0.136-0.111-0.226-0.157
			c-0.09-0.049-0.183-0.086-0.279-0.116c-0.096-0.029-0.218-0.056-0.366-0.077c-0.149-0.021-0.353-0.039-0.613-0.053l-0.767-0.065
			c-0.734-0.055-1.3-0.106-1.698-0.153c-0.398-0.046-0.759-0.125-1.083-0.235c-0.324-0.11-0.614-0.26-0.872-0.451
			c-0.257-0.19-0.472-0.415-0.645-0.675c-0.302-0.452-0.452-0.973-0.448-1.565c0.002-0.592,0.203-1.157,0.602-1.698
			c0.399-0.54,0.955-1.046,1.666-1.521c0.81-0.541,1.807-1.069,2.993-1.584l1.416,1.858c-0.912,0.188-1.698,0.503-2.359,0.945
			c-0.359,0.24-0.648,0.485-0.87,0.736c-0.222,0.25-0.342,0.489-0.363,0.712c-0.021,0.224,0.029,0.425,0.149,0.605
			c0.07,0.104,0.158,0.195,0.263,0.273c0.105,0.077,0.241,0.14,0.409,0.19c0.167,0.049,0.344,0.083,0.53,0.101
			c0.187,0.019,0.569,0.045,1.146,0.079c0.578,0.035,1.089,0.074,1.533,0.117c0.445,0.043,0.839,0.122,1.184,0.235
			c0.344,0.114,0.657,0.274,0.938,0.48c0.281,0.206,0.514,0.448,0.7,0.725c0.31,0.464,0.455,0.99,0.435,1.575
			c-0.021,0.585-0.244,1.182-0.67,1.788c-0.426,0.607-0.995,1.148-1.706,1.623c-0.371,0.248-0.842,0.52-1.413,0.816
			C-1331.399,340.3-1332.037,340.577-1332.742,340.833z"/>
		<path fill="#D1D3D4" d="M-1325.364,335.904l-1.568-1.905c0.771-0.157,1.399-0.329,1.884-0.513
			c0.484-0.186,0.903-0.396,1.255-0.631c0.353-0.235,0.622-0.476,0.806-0.72c0.186-0.245,0.282-0.488,0.291-0.73
			c0.008-0.241-0.048-0.454-0.168-0.632c-0.053-0.08-0.111-0.149-0.171-0.207c-0.061-0.057-0.136-0.111-0.226-0.157
			c-0.09-0.048-0.183-0.085-0.279-0.116c-0.096-0.029-0.219-0.056-0.367-0.077c-0.149-0.021-0.353-0.039-0.612-0.053l-0.768-0.064
			c-0.734-0.055-1.3-0.106-1.698-0.153c-0.398-0.047-0.759-0.125-1.083-0.235c-0.324-0.11-0.614-0.26-0.872-0.452
			c-0.256-0.19-0.472-0.415-0.645-0.675c-0.302-0.452-0.451-0.973-0.448-1.564c0.002-0.592,0.203-1.157,0.603-1.698
			c0.399-0.539,0.955-1.046,1.666-1.521c0.81-0.541,1.808-1.069,2.993-1.584l1.416,1.858c-0.912,0.188-1.698,0.503-2.36,0.945
			c-0.358,0.24-0.648,0.485-0.869,0.736c-0.222,0.25-0.343,0.489-0.363,0.711c-0.021,0.224,0.029,0.425,0.149,0.605
			c0.07,0.104,0.158,0.196,0.263,0.273c0.105,0.077,0.241,0.14,0.408,0.19c0.167,0.049,0.344,0.083,0.531,0.101
			c0.187,0.019,0.569,0.045,1.146,0.079c0.578,0.035,1.089,0.074,1.533,0.117c0.444,0.043,0.839,0.122,1.183,0.235
			c0.344,0.115,0.657,0.274,0.938,0.481c0.281,0.205,0.514,0.448,0.7,0.725c0.31,0.464,0.455,0.989,0.435,1.575
			c-0.02,0.586-0.243,1.182-0.67,1.788c-0.426,0.607-0.995,1.148-1.706,1.623c-0.371,0.248-0.842,0.52-1.413,0.817
			C-1324.021,335.371-1324.659,335.647-1325.364,335.904z"/>
	</g>
	<g>
		<path fill="#BCBEC0" d="M-1622.951,350.229l0.89,2.93l-16.21,1.015l-0.938-3.087l6.017-3.246c1.472-0.813,2.934-1.515,4.585-2.231
			l-0.012-0.039c-1.789,0.264-3.387,0.448-5.093,0.559l-6.859,0.472l-0.932-3.067l14.113-7.918l0.938,3.087l-6.177,3.145
			c-1.714,0.864-3.492,1.727-5.04,2.434l0.018,0.059c1.757-0.297,3.621-0.456,5.628-0.636l6.908-0.595l0.872,2.87l-6.18,3.275
			c-1.668,0.872-3.25,1.674-4.96,2.409l0.018,0.059c1.861-0.308,3.662-0.532,5.566-0.767L-1622.951,350.229z"/>
		<path fill="#BCBEC0" d="M-1625.278,369.085c-5.271,1.602-8.777-0.254-9.918-4.011c-1.213-3.992,1.443-7.27,5.829-8.602
			c4.523-1.374,8.605,0.114,9.806,4.066C-1618.289,364.728-1621.247,367.86-1625.278,369.085z M-1628.383,359.502
			c-2.969,0.902-5.055,2.804-4.404,4.948c0.657,2.163,3.417,2.549,6.465,1.624c2.773-0.843,5.033-2.668,4.358-4.89
			C-1622.658,358.901-1625.609,358.66-1628.383,359.502z"/>
		<path fill="#BCBEC0" d="M-1620.977,383.243c-5.271,1.602-8.777-0.255-9.918-4.011c-1.213-3.993,1.443-7.27,5.829-8.602
			c4.523-1.374,8.605,0.114,9.807,4.066C-1613.987,378.885-1616.945,382.019-1620.977,383.243z M-1624.082,373.66
			c-2.969,0.902-5.055,2.803-4.404,4.947c0.657,2.163,3.417,2.55,6.465,1.625c2.772-0.843,5.032-2.668,4.357-4.89
			C-1618.356,373.06-1621.309,372.818-1624.082,373.66z"/>
		<path fill="#BCBEC0" d="M-1613.124,383.284c0.52,1.002,1.056,2.342,1.504,3.817c0.765,2.518,0.753,4.39,0.093,5.966
			c-0.744,1.793-2.355,3.206-5.088,4.037c-3.245,0.986-5.474,0.439-6.868-0.404c-1.657-1-2.906-2.919-3.707-5.556
			c-0.424-1.396-0.666-2.546-0.801-3.343L-1613.124,383.284z M-1624.931,390.028c0.031,0.313,0.162,0.746,0.282,1.139
			c0.823,2.779,3.095,4.107,7.067,2.9c3.422-1.04,4.605-3.225,3.787-5.918c-0.186-0.61-0.382-1.044-0.536-1.341L-1624.931,390.028z"
			/>
		<path fill="#BCBEC0" d="M-1603.326,414.827l0.89,2.93l-16.21,1.015l-0.938-3.088l6.017-3.246c1.472-0.812,2.934-1.514,4.585-2.23
			l-0.012-0.039c-1.788,0.263-3.387,0.448-5.093,0.558l-6.859,0.473l-0.932-3.068l14.113-7.917l0.938,3.087l-6.176,3.145
			c-1.714,0.864-3.493,1.727-5.04,2.434l0.018,0.059c1.757-0.297,3.621-0.456,5.628-0.637l6.908-0.594l0.872,2.87l-6.18,3.275
			c-1.668,0.872-3.25,1.674-4.961,2.409l0.019,0.059c1.861-0.308,3.661-0.532,5.566-0.767L-1603.326,414.827z"/>
		<path fill="#BCBEC0" d="M-1605.653,433.683c-5.271,1.602-8.777-0.254-9.918-4.011c-1.213-3.992,1.443-7.27,5.829-8.602
			c4.523-1.374,8.605,0.114,9.807,4.066C-1598.664,429.325-1601.622,432.458-1605.653,433.683z M-1608.758,424.1
			c-2.97,0.902-5.056,2.804-4.404,4.948c0.657,2.163,3.417,2.549,6.465,1.624c2.772-0.843,5.032-2.668,4.357-4.89
			C-1603.033,423.499-1605.985,423.257-1608.758,424.1z"/>
		<path fill="#BCBEC0" d="M-1597.8,433.724c0.482,0.949,1.049,2.323,1.498,3.798c0.579,1.907,1.515,5.835-2.537,7.065
			c-1.848,0.562-3.563-0.206-4.545-1.456l-0.059,0.018c-0.09,1.188-0.934,2.088-2.36,2.908c-1.658,0.977-3.348,1.919-3.828,2.389
			l-0.908-2.989c0.367-0.348,1.57-1.123,3.292-2.033c1.827-0.985,2.252-1.778,1.834-3.155l-0.299-0.983l-6.136,1.864l-0.878-2.891
			L-1597.8,433.724z M-1603.55,438.628l0.364,1.199c0.502,1.652,1.771,2.363,3.206,1.927c1.947-0.591,1.878-2.161,1.556-3.223
			c-0.197-0.649-0.374-1.089-0.524-1.302L-1603.55,438.628z"/>
		<path fill="#BCBEC0" d="M-1598.565,453.761l-7.202,7.408l-1.009-3.324l5.623-5.531l-1.855-0.661l-5.172,1.571l-0.878-2.891
			l15.123-4.594l0.878,2.891l-6.844,2.079l0.018,0.06c0.686,0.134,1.357,0.296,2.023,0.437l6.099,1.692l1.051,3.462
			L-1598.565,453.761z"/>
	</g>
	<g>
		<path fill="#BCBEC0" d="M-1567.357,551.855l1.276,3.996c1.228,3.846-2.124,5.293-3.021,5.58c-1.581,0.505-3.226,0.371-5.125-1.376
			l-5.449,6.308l-0.621-1.944l5.216-5.787c-0.267-0.763-0.513-1.532-0.78-2.293l-6.367,2.034l-0.512-1.604L-1567.357,551.855z
			 M-1574.011,557.418c0.696,2.18,2.217,3.107,4.481,2.384c2.052-0.655,2.655-1.79,1.843-4.333l-0.505-1.58l-6.304,2.014
			L-1574.011,557.418z"/>
		<path fill="#BCBEC0" d="M-1573.137,568.557c-3.114,1.089-3.71,2.834-3.151,4.586c0.403,1.26,1.382,2.336,2.358,3.179l-1.213,1.141
			c-1.099-1.227-2.027-2.437-2.532-4.019c-1.078-3.376,1.397-5.65,4.368-6.599c2.991-0.956,6.469-0.536,7.561,2.883
			c1.215,3.804-2.846,5.761-4.085,6.156l-0.876,0.28L-1573.137,568.557z M-1569.873,574.131c1.86-0.665,3.313-2.306,2.74-4.102
			c-0.573-1.794-2.221-2.233-4.665-1.923L-1569.873,574.131z"/>
		<path fill="#BCBEC0" d="M-1558.527,586.8c0.098-1.021,0.454-2.264,0.141-3.247c-0.451-1.41-1.524-1.75-2.999-1.28l-1.282,0.41
			l1.174,3.675l-1.346,0.43l-1.174-3.675l-9.358,2.989l-0.512-1.603l9.359-2.989l-0.908-2.842l1.346-0.43l0.908,2.842l1.09-0.348
			c2.714-0.867,4.476,0.595,5.015,2.283c0.334,1.047,0.299,2.189,0.172,3.266L-1558.527,586.8z"/>
		<path fill="#BCBEC0" d="M-1565.047,592.482c4.423-1.413,6.712,0.446,7.408,2.626c1.29,4.038-2.649,5.861-4.507,6.455
			c-4.423,1.413-6.691-0.453-7.394-2.653C-1570.175,596.924-1569.663,593.957-1565.047,592.482z M-1562.659,599.961
			c1.965-0.628,4.472-1.923,3.673-4.423s-3.584-2.08-5.55-1.452c-1.966,0.628-4.458,1.894-3.659,4.394
			C-1567.396,600.98-1564.625,600.589-1562.659,599.961z"/>
		<path fill="#BCBEC0" d="M-1565.675,610.2l-0.512-1.603l6.56-2.096c1.902-0.607,3.393-1.249,4.729-2.004l0.498,1.559l-2.063,1.061
			c1.626,0.446,3.002,1.065,3.548,2.775c0.683,2.137-1.248,3.318-2.979,3.871l-0.512-1.604c0.841-0.315,2.506-0.706,2.117-1.924
			c-0.376-1.175-2.86-2.759-6.621-1.558L-1565.675,610.2z"/>
		<path fill="#BCBEC0" d="M-1554.816,616.995c1.56-0.498,2.518-1.04,3.632-1.678l0.511,1.603l-0.95,0.563
			c0.816,0.493,1.435,0.954,1.742,1.916c0.334,1.047,0.167,1.407-0.426,2.279c0.81,0.471,1.471,0.919,1.771,1.86
			c0.491,1.538-0.199,2.842-1.737,3.333l-9.146,2.921l-0.512-1.604l9.145-2.921c0.769-0.246,1.067-0.787,0.862-1.428
			c-0.231-0.727-1.028-1.156-1.735-1.307l-9.145,2.921l-0.512-1.603l9.017-2.88c0.598-0.191,1.249-0.587,1.017-1.314
			c-0.246-0.77-1.175-1.32-1.976-1.393l-8.932,2.853l-0.512-1.604L-1554.816,616.995z"/>
		<path fill="#BCBEC0" d="M-1552.666,632.648c-3.113,1.088-3.71,2.833-3.15,4.585c0.402,1.261,1.382,2.338,2.357,3.179l-1.213,1.141
			c-1.098-1.227-2.026-2.437-2.531-4.018c-1.079-3.376,1.397-5.651,4.367-6.6c2.991-0.956,6.469-0.535,7.562,2.883
			c1.215,3.804-2.846,5.761-4.085,6.156l-0.876,0.28L-1552.666,632.648z M-1549.402,638.222c1.86-0.665,3.314-2.307,2.74-4.102
			c-0.573-1.795-2.221-2.234-4.665-1.923L-1549.402,638.222z"/>
		<path fill="#BCBEC0" d="M-1552.215,653.152l1.173-0.751c-1.162-0.689-1.753-1.065-2.176-2.389
			c-0.642-2.009,0.078-5.064,4.565-6.497c4.359-1.393,6.763,0.9,7.357,2.76c0.307,0.961,0.284,1.698,0.109,2.625l4.85-1.549
			l0.512,1.604l-11.773,3.761c-1.41,0.45-2.779,1.029-3.939,1.894L-1552.215,653.152z M-1542.812,649.418
			c0.315-0.783,0.51-1.646,0.251-2.459c-0.546-1.708-2.483-2.833-5.645-1.822c-3.718,1.188-3.995,3.418-3.653,4.488
			c0.396,1.238,1.561,1.714,2.743,1.807L-1542.812,649.418z"/>
		<path fill="#BCBEC0" d="M-1530.489,667.282l1.181,3.696c0.888,2.777-0.26,4.935-3.294,5.904c-3.248,1.038-5.319-0.657-6.281-3.668
			l-0.43-1.347l-6.047,1.932l-0.512-1.603L-1530.489,667.282z M-1537.402,673.211c0.594,1.858,2.107,2.764,4.266,2.075
			c2.415-0.771,3.021-2.189,2.414-4.09l-0.601-1.881l-6.646,2.123L-1537.402,673.211z"/>
		<path fill="#BCBEC0" d="M-1525.687,686.961l-0.669-2.094l-12.692,4.054l0.669,2.094l-1.346,0.43l-1.843-5.769l1.346-0.43
			l0.662,2.073l12.692-4.054l-0.662-2.073l1.346-0.43l1.842,5.769L-1525.687,686.961z"/>
		<path fill="#BCBEC0" d="M-1535.684,699.454l2.129,6.666l-1.346,0.43l-2.641-8.269l15.384-4.914l0.512,1.603L-1535.684,699.454z"/>
		<path fill="#BCBEC0" d="M-1530.71,719.668l-0.553-1.731l4.093-2.814l-1.495-4.68l-4.966,0.08l-0.552-1.73l18.399,0.103
			L-1530.71,719.668z M-1527.196,710.397l1.25,3.91l5.589-3.952L-1527.196,710.397z"/>
		<path fill="#BCBEC0" d="M-1512.681,727.681l-1.398-4.38l-14.038,4.484l-0.512-1.603l14.038-4.484l-1.372-4.295l1.346-0.43
			l3.283,10.277L-1512.681,727.681z"/>
		<path fill="#BCBEC0" d="M-1508.777,739.9l-2.041-6.389l-5.47,1.748l1.468,4.594l-1.346,0.43l-1.467-4.594l-5.876,1.877
			l2.088,6.538l-1.346,0.43l-2.6-8.141l15.384-4.914l2.552,7.991L-1508.777,739.9z"/>
		<path fill="#BCBEC0" d="M-1506.497,751.98c0.533-1.207,1.089-2.562,0.666-3.886c-0.437-1.368-1.732-2.179-3.142-1.729
			c-0.813,0.26-1.491,0.641-2.09,3.117l-0.358,1.456c-0.83,3.373-1.396,4.402-3.191,4.976c-2.756,0.881-4.988-0.432-5.848-3.124
			c-0.635-1.988-0.145-3.769,1.012-5.457l1.379,0.926c-0.958,1.129-1.516,2.627-1.045,4.1c0.512,1.603,2.132,2.545,3.777,2.02
			c1.239-0.396,1.639-0.617,2.396-3.85l0.39-1.655c0.413-1.803,1.037-3.462,2.96-4.076c2.414-0.771,4.39,0.622,5.126,2.929
			c0.512,1.604,0.128,3.351-0.572,4.846L-1506.497,751.98z"/>
	</g>
	<g>
		<path fill="#C2B59B" stroke="#000000" stroke-width="0.5" stroke-miterlimit="10" d="M-1902.683,485.606l15.645,5.882l9.357-3.787
			v9.064l-9.046-1.41v18.29c0,2.955,0.217,4.955,0.653,6.002c0.569,1.37,1.759,2.955,3.568,4.753
			c2.915,2.981,4.372,5.116,4.372,6.405s-0.764,2.524-2.291,3.707c-1.527,1.181-5.596,3.007-12.208,5.479
			c-2.247-0.645-4.393-1.122-6.439-1.43c-2.045-0.309-3.99-0.463-5.834-0.463c-4.427,0-9.541,0.631-15.342,1.894l-0.704-1.37
			l11.89-11.129l-11.89-6.838v-29.166C-1914.309,490.36-1908.219,488.4-1902.683,485.606z M-1912.072,532.7
			c4.355-0.564,7.874-0.846,10.554-0.846c2.413,0,4.85,0.255,7.312,0.766c2.463,0.51,4.951,1.289,7.464,2.336l2.064-1.047
			c-4.526-3.379-7.594-6.115-9.203-8.206c-1.609-2.092-2.631-4.372-3.067-6.839L-1912.072,532.7z M-1896.979,495.275l-13.719-3.787
			v26.397l7.423,4.316l6.296-6.019V495.275z"/>
		<path fill="#C2B59B" stroke="#000000" stroke-width="0.5" stroke-miterlimit="10" d="M-1844.337,485.606l7.613,7.312l-7.613,5.418
			l-6.352-6.451l-4.98,3.631v23.445l5.729,3.303l5.176-3.263l1.156,1.289l-12.89,8.258c-2.742-1.96-5.042-3.37-6.897-4.23
			c-1.856-0.859-3.888-1.531-6.094-2.014v-0.886c1.474-0.832,2.438-1.672,2.89-2.518c0.452-0.846,0.679-2.463,0.679-4.854v-16.437
			c0-2.068-0.288-3.444-0.862-4.129c-0.574-0.685-1.205-1.027-1.894-1.027c-0.755,0-1.788,0.538-3.1,1.611l-1.231-1.168
			l10.478-7.292c2.858,1.746,4.808,3.263,5.851,4.552c0.672,0.806,1.009,1.92,1.009,3.344L-1844.337,485.606z"/>
		<path fill="#C2B59B" stroke="#000000" stroke-width="0.5" stroke-miterlimit="10" d="M-1795.716,487.339l1.809,0.564
			c-1.809,2.256-2.957,3.982-3.442,5.177c-0.486,1.195-0.729,2.813-0.729,4.854v17.162c0,2.847,0.251,4.626,0.754,5.338
			c0.502,0.712,1.105,1.067,1.807,1.067c0.366,0,0.747-0.077,1.144-0.23c0.243-0.127,0.96-0.588,2.15-1.381l1.231,1.249
			l-10.679,7.413c-2.59-1.611-4.322-3.055-5.196-4.331c-0.875-1.275-1.363-3.055-1.463-5.338l-15.252,9.668
			c-5.747-3.766-8.619-7.477-8.619-11.135c0-2.447,0.622-4.747,1.866-6.898c1.647-2.824,4.489-6.119,8.525-9.884l-6.046-10.356
			l0.702-1.044c1.303,0.081,2.272,0.121,2.908,0.121c3.944,0,7.42-1.249,10.429-3.747c2.44,1.143,5.106,2.06,7.997,2.751
			c2.891,0.691,5.106,1.036,6.644,1.036c0.702,0,1.237-0.099,1.604-0.297C-1797.204,488.899-1796.585,488.313-1795.716,487.339z
			 M-1808.33,494.996l-17.188-4.231l6.116,10.381l11.071,4.166V494.996z M-1808.33,506.998l-12.162-4.576
			c-1.876,3.281-2.814,6.159-2.814,8.633c0,4.357,2.463,7.947,7.391,10.771l7.585-4.912V506.998z"/>
		<path fill="#C2B59B" stroke="#000000" stroke-width="0.5" stroke-miterlimit="10" d="M-1769.156,485.606l13.041,5.982
			l-5.352,6.264l-9.825-4.552v25.702l9.889,3.541l5.259-3.05l0.531,1.724l-12.438,7.332c-3.211-1.45-5.955-2.518-8.23-3.203
			s-5.068-1.282-8.379-1.792v-0.967c1.172-0.645,1.943-1.342,2.312-2.095c0.536-1.047,0.804-2.685,0.804-4.915v-22.922
			C-1777.365,491.125-1773.235,488.776-1769.156,485.606z"/>
		<path fill="#C2B59B" stroke="#000000" stroke-width="0.5" stroke-miterlimit="10" d="M-1741.616,485.606l8.92,5.942l-3.97,3.082
			v21.915c0,2.31,0.242,3.814,0.727,4.512c0.483,0.699,0.983,1.047,1.497,1.047c0.363,0,0.696-0.066,0.999-0.201
			c0.423-0.188,1.3-0.725,2.632-1.611l1.231,1.249l-10.78,7.01c-2.691-1.531-4.423-2.974-5.196-4.331
			c-0.774-1.356-1.161-3.727-1.161-7.11V494.63l-3.769-3.082L-1741.616,485.606z M-1737.822,471.829h6.382l-6.935,8.702h-2.01
			L-1737.822,471.829z"/>
		<path fill="#C2B59B" stroke="#000000" stroke-width="0.5" stroke-miterlimit="10" d="M-1686.411,487.339l1.809,0.564
			c-1.809,2.256-2.957,3.982-3.442,5.177c-0.486,1.195-0.729,2.813-0.729,4.854v17.162c0,2.847,0.251,4.626,0.754,5.338
			c0.502,0.712,1.105,1.067,1.807,1.067c0.366,0,0.747-0.077,1.144-0.23c0.243-0.127,0.96-0.588,2.15-1.381l1.231,1.249
			l-10.679,7.413c-2.59-1.611-4.322-3.055-5.196-4.331c-0.875-1.275-1.363-3.055-1.463-5.338l-15.252,9.668
			c-5.747-3.766-8.619-7.477-8.619-11.135c0-2.447,0.622-4.747,1.866-6.898c1.647-2.824,4.489-6.119,8.525-9.884l-6.046-10.356
			l0.702-1.044c1.303,0.081,2.272,0.121,2.908,0.121c3.944,0,7.42-1.249,10.429-3.747c2.44,1.143,5.106,2.06,7.997,2.751
			c2.891,0.691,5.106,1.036,6.644,1.036c0.702,0,1.237-0.099,1.604-0.297C-1687.899,488.899-1687.28,488.313-1686.411,487.339z
			 M-1699.025,494.996l-17.188-4.231l6.116,10.381l11.071,4.166V494.996z M-1699.025,506.998l-12.162-4.576
			c-1.876,3.281-2.814,6.159-2.814,8.633c0,4.357,2.463,7.947,7.391,10.771l7.585-4.912V506.998z"/>
		<path fill="#C2B59B" stroke="#000000" stroke-width="0.5" stroke-miterlimit="10" d="M-1650.036,500.546l11.668,4.88v16.96
			c-2.819,0.215-5.37,0.766-7.651,1.652s-4.866,2.391-7.752,4.512c-2.482-1.182-4.637-2-6.465-2.458
			c-1.828-0.456-3.764-0.685-5.81-0.685c-3.153,0-5.953,0.765-8.401,2.296c-0.906,0.564-1.56,0.846-1.962,0.846
			c-0.369,0-0.738-0.147-1.107-0.443c-0.369-0.295-0.553-0.591-0.553-0.887c0-0.322,0.351-0.752,1.054-1.29
			c0.401-0.322,1.087-0.94,2.058-1.854l4.571-4.554l6.474-6.894l-10.991-4.744v-15.026c3.457-0.859,6.167-1.819,8.131-2.88
			c1.963-1.061,3.852-2.518,5.664-4.371c4.288,1.45,7.739,2.471,10.353,3.062c1.876,0.403,3.669,0.604,5.377,0.604
			c1.884,0,3.348-0.329,4.39-0.987c1.043-0.658,1.564-1.35,1.564-2.075c0-0.483-0.335-0.967-1.005-1.45
			c-1.307-0.94-1.96-1.854-1.96-2.74c0-0.832,0.284-1.497,0.854-1.994c0.569-0.497,1.206-0.745,1.91-0.745
			c0.938,0,1.784,0.342,2.538,1.027c0.753,0.685,1.13,1.591,1.13,2.719c0,1.155-0.303,2.283-0.908,3.384
			c-0.605,1.102-1.766,2.525-3.481,4.271L-1650.036,500.546z M-1656.105,506.999l-12.114,13.011
			c1.474-0.403,2.847-0.698,4.121-0.886c1.273-0.188,2.429-0.282,3.468-0.282c3.852,0,7.856,1.021,12.011,3.062v-11.683
			L-1656.105,506.999z M-1664.751,503.331l6.882,2.86l10.956-11.687c-2.244,0.514-4.188,0.771-5.829,0.771
			c-4.121,0-8.124-1.101-12.009-3.303V503.331z"/>
	</g>
	<g>
		<path fill="#939598" d="M-1797.517,262.316l-9.959,17.475l-3.292-3.538l2.087-3.558l-4.228-4.543l-3.712,1.811l-2.686-2.886
			l18.243-8.572L-1797.517,262.316z M-1809.579,266.528l2.77,2.977l3.558-6.064L-1809.579,266.528z"/>
		<path fill="#939598" d="M-1803.433,284.136l-2.769-2.976l10.398-9.675l2.615,2.811l-1.936,1.801
			c1.844-0.908,3.26-0.832,4.25,0.232c0.141,0.151,0.302,0.346,0.486,0.585l-3.026,2.816c-0.582-0.625-1.129-1.021-1.645-1.189
			c-0.514-0.167-1.123-0.129-1.824,0.114c-0.703,0.243-1.475,0.758-2.319,1.543L-1803.433,284.136z"/>
		<path fill="#939598" d="M-1786.983,293.991c-1.337,1.026-2.782,1.465-4.335,1.316c-1.554-0.149-2.96-0.899-4.218-2.251
			c-1.366-1.468-1.994-3.116-1.881-4.943c0.112-1.827,0.981-3.497,2.608-5.011s3.385-2.27,5.276-2.268
			c1.89,0.001,3.57,0.792,5.039,2.37c1.182,1.27,1.779,2.676,1.793,4.218c0.015,1.543-0.51,2.893-1.573,4.048l-2.828-2.708
			c1.16-1.259,1.28-2.382,0.361-3.37c-1.13-1.215-2.691-0.896-4.681,0.955c-1.325,1.233-2.007,2.186-2.048,2.857
			c-0.041,0.672,0.165,1.251,0.619,1.739c0.882,0.947,2.009,0.955,3.382,0.022L-1786.983,293.991z"/>
		<path fill="#939598" d="M-1772.396,289.313l-5.068,4.716c1.61-0.449,3.025-0.018,4.245,1.293c0.651,0.7,1.055,1.44,1.214,2.223
			c0.158,0.782,0.09,1.497-0.202,2.146c-0.292,0.649-0.901,1.406-1.828,2.268l-6.867,6.39l-2.855-3.067l5.865-5.458
			c0.701-0.652,1.157-1.127,1.367-1.425c0.21-0.297,0.313-0.625,0.307-0.983c-0.007-0.357-0.146-0.684-0.42-0.978
			c-0.356-0.383-0.859-0.624-1.508-0.722c-0.649-0.098-1.461,0.307-2.437,1.215l-5.865,5.458l-2.769-2.976l14.052-13.076
			L-1772.396,289.313z"/>
		<path fill="#939598" d="M-1765.293,304.273l-10.398,9.675l-2.855-3.068l10.398-9.675L-1765.293,304.273z M-1761.351,300.604
			l-3.068,2.854l-2.855-3.068l3.068-2.854L-1761.351,300.604z"/>
		<path fill="#939598" d="M-1762.116,312.478l-4.396,4.091c-0.549,0.511-0.841,0.934-0.873,1.271
			c-0.033,0.336,0.233,0.809,0.799,1.417c0.261,0.28,0.576,0.592,0.948,0.936l-2.275,2.117c-0.981-0.752-1.654-1.324-2.019-1.714
			c-1.187-1.276-1.785-2.412-1.792-3.403c-0.008-0.992,0.629-2.085,1.913-3.28l4.838-4.502l-1.533-1.647l2.389-2.222l1.696,1.822
			l3.298-2.607l2.667,2.454l-3.273,3.046l2.078,2.233l-2.389,2.222L-1762.116,312.478z"/>
		<path fill="#939598" d="M-1753.17,328.759l-6.227-6.692c-0.191,0.166-0.356,0.313-0.493,0.44c-0.741,0.69-1.118,1.407-1.127,2.153
			c-0.011,0.746,0.239,1.393,0.75,1.942c0.952,1.022,2.069,1.129,3.352,0.319l2.381,2.971c-3.124,1.459-5.791,1.002-8.001-1.373
			c-0.964-1.036-1.575-2.109-1.833-3.22c-0.259-1.111-0.208-2.271,0.149-3.483c0.359-1.21,1.094-2.333,2.207-3.368
			c1.654-1.539,3.428-2.31,5.322-2.311c1.894-0.002,3.53,0.739,4.91,2.221c1.245,1.338,1.842,2.926,1.789,4.761
			S-1751.104,326.837-1753.17,328.759z M-1757.625,320.4l3.438,3.695c1.338-1.424,1.506-2.675,0.503-3.752
			C-1754.756,319.19-1756.071,319.208-1757.625,320.4z"/>
		<path fill="#939598" d="M-1743.645,340.564c-1.337,1.027-2.782,1.466-4.335,1.317c-1.554-0.149-2.96-0.899-4.218-2.251
			c-1.367-1.469-1.994-3.116-1.881-4.943c0.112-1.827,0.981-3.497,2.608-5.011s3.385-2.27,5.276-2.268
			c1.89,0.001,3.569,0.792,5.039,2.37c1.181,1.27,1.779,2.676,1.793,4.218c0.015,1.543-0.51,2.892-1.573,4.048l-2.828-2.708
			c1.16-1.258,1.28-2.382,0.361-3.37c-1.13-1.214-2.691-0.896-4.681,0.956c-1.325,1.233-2.007,2.186-2.048,2.857
			c-0.041,0.672,0.166,1.251,0.619,1.739c0.881,0.947,2.008,0.955,3.382,0.022L-1743.645,340.564z"/>
		<path fill="#939598" d="M-1734.786,341.849l-4.396,4.091c-0.549,0.511-0.84,0.934-0.872,1.271
			c-0.033,0.336,0.233,0.809,0.799,1.417c0.261,0.28,0.576,0.592,0.947,0.935l-2.275,2.117c-0.981-0.752-1.654-1.323-2.018-1.714
			c-1.188-1.276-1.785-2.411-1.792-3.402c-0.008-0.992,0.629-2.086,1.913-3.28l4.838-4.502l-1.533-1.647l2.389-2.222l1.696,1.823
			l3.298-2.607l2.667,2.454l-3.273,3.046l2.078,2.233l-2.389,2.222L-1734.786,341.849z"/>
		<path fill="#939598" d="M-1720.453,352.463l-10.398,9.675l-2.644-2.841l1.771-1.647c-1.822,0.697-3.437,0.291-4.841-1.219
			c-0.729-0.783-1.141-1.519-1.239-2.209c-0.098-0.69,0.021-1.361,0.356-2.012c0.334-0.651,0.979-1.42,1.933-2.309l6.795-6.322
			l2.769,2.976l-6.794,6.322c-0.934,0.869-1.043,1.687-0.328,2.456c0.365,0.392,0.792,0.627,1.283,0.708s0.9,0.042,1.228-0.115
			c0.328-0.157,0.8-0.523,1.418-1.098l5.837-5.432L-1720.453,352.463z"/>
		<path fill="#939598" d="M-1725.725,367.646l-2.769-2.975l10.398-9.675l2.615,2.81l-1.936,1.801
			c1.844-0.908,3.261-0.831,4.25,0.232c0.142,0.152,0.303,0.347,0.487,0.585l-3.026,2.816c-0.582-0.625-1.129-1.021-1.645-1.189
			c-0.514-0.167-1.123-0.129-1.824,0.114c-0.703,0.243-1.475,0.758-2.319,1.543L-1725.725,367.646z"/>
		<path fill="#939598" d="M-1713.243,381.06l-2.768-2.975c0.322-0.48,0.82-1.032,1.492-1.658c-1.226,0.169-2.201,0.108-2.926-0.182
			c-0.725-0.291-1.394-0.765-2.006-1.423c-0.906-0.973-1.373-2.005-1.402-3.096c-0.03-1.091,0.402-2.052,1.294-2.882
			c0.652-0.606,1.415-0.991,2.29-1.152c0.874-0.161,1.828,0,2.86,0.484s2.578,1.679,4.635,3.588l0.597-0.556
			c1.009-0.939,1.045-1.912,0.109-2.917c-1-1.075-2.061-1.204-3.184-0.388l-2.367-3.081c1.353-0.913,2.71-1.133,4.073-0.659
			c1.362,0.473,2.593,1.3,3.692,2.481c0.658,0.707,1.195,1.449,1.611,2.227s0.623,1.495,0.619,2.151
			c-0.003,0.657-0.131,1.218-0.384,1.684c-0.252,0.465-0.834,1.122-1.748,1.972l-4.715,4.387
			C-1712.375,379.907-1712.966,380.573-1713.243,381.06z M-1711.287,373.171c-2.206-1.943-3.851-2.411-4.935-1.401
			c-0.364,0.338-0.572,0.743-0.626,1.215s0.113,0.917,0.501,1.333c0.503,0.541,1.149,0.785,1.94,0.732
			c0.79-0.053,1.515-0.385,2.173-0.999L-1711.287,373.171z"/>
		<path fill="#939598" d="M-1711.059,383.407l14.052-13.076l2.854,3.068l-14.052,13.076L-1711.059,383.407z"/>
		<path fill="#939598" d="M-1686.766,381.336l3.991,4.289c1.627,1.749,2.598,3.276,2.912,4.583c0.313,1.308,0.263,2.788-0.152,4.44
			s-1.422,3.223-3.021,4.711c-2.011,1.872-4.243,2.841-6.695,2.91s-4.649-0.939-6.588-3.023l-4.499-4.834L-1686.766,381.336z
			 M-1686.342,386.974l-8.822,8.209l1.262,1.356c1.115,1.198,2.392,1.672,3.829,1.421c1.437-0.251,2.76-0.938,3.968-2.062
			c0.851-0.792,1.484-1.692,1.899-2.697c0.415-1.006,0.539-1.891,0.371-2.656s-0.572-1.493-1.216-2.185L-1686.342,386.974z"/>
		<path fill="#939598" d="M-1674.858,412.918l-6.227-6.692c-0.191,0.166-0.356,0.313-0.493,0.44
			c-0.741,0.69-1.117,1.407-1.127,2.153c-0.011,0.746,0.239,1.393,0.75,1.942c0.952,1.022,2.069,1.129,3.352,0.32l2.381,2.971
			c-3.124,1.46-5.791,1.002-8.001-1.373c-0.964-1.036-1.575-2.109-1.833-3.22s-0.209-2.271,0.149-3.482
			c0.359-1.21,1.094-2.333,2.206-3.368c1.654-1.539,3.428-2.31,5.322-2.311c1.894-0.001,3.53,0.739,4.91,2.221
			c1.245,1.338,1.842,2.925,1.789,4.761C-1671.733,409.117-1672.792,410.997-1674.858,412.918z M-1679.313,404.56l3.438,3.695
			c1.338-1.424,1.506-2.675,0.503-3.752C-1676.444,403.35-1677.759,403.368-1679.313,404.56z"/>
		<path fill="#939598" d="M-1662.614,419.657l-2.675-1.678c0.698-1.136,0.539-2.25-0.477-3.34c-0.958-1.03-1.75-1.253-2.375-0.671
			c-0.248,0.23-0.357,0.508-0.33,0.835c0.027,0.326,0.36,0.935,1,1.826c0.948,1.333,1.585,2.38,1.909,3.142s0.397,1.534,0.22,2.321
			c-0.178,0.787-0.623,1.512-1.336,2.176c-1.071,0.996-2.321,1.401-3.75,1.213c-1.429-0.187-2.825-1.012-4.185-2.474
			c-2.465-2.649-2.911-5.186-1.338-7.61l2.786,2.23c-0.735,1.081-0.487,2.284,0.746,3.608c0.473,0.508,0.963,0.853,1.471,1.032
			c0.508,0.181,0.917,0.127,1.227-0.161c0.482-0.448,0.406-1.101-0.228-1.959c-1.696-2.341-2.579-4.096-2.649-5.266
			c-0.071-1.17,0.381-2.208,1.356-3.115c0.988-0.92,2.163-1.295,3.522-1.127c1.361,0.168,2.686,0.946,3.976,2.332
			c1.022,1.098,1.624,2.178,1.804,3.239C-1661.761,417.271-1661.985,418.42-1662.614,419.657z"/>
		<path fill="#939598" d="M-1655.207,422.581l-10.398,9.675l-2.854-3.068l10.398-9.675L-1655.207,422.581z M-1651.264,418.912
			l-3.068,2.854l-2.854-3.068l3.068-2.854L-1651.264,418.912z"/>
		<path fill="#939598" d="M-1643.43,435.711c-0.232-0.387-0.45-0.69-0.654-0.91c-0.632-0.679-1.305-0.796-2.017-0.351
			c-0.066,1.099-0.466,1.99-1.201,2.673c-0.981,0.914-2.146,1.231-3.492,0.954c-1.347-0.277-2.738-1.188-4.175-2.732
			c-0.511-0.549-0.957-1.132-1.338-1.751c-0.531-0.158-0.959-0.086-1.282,0.214c-0.357,0.333-0.457,0.7-0.299,1.104
			c0.158,0.404,0.733,1.194,1.726,2.371c1.405,1.676,2.33,2.87,2.776,3.582c0.445,0.713,0.636,1.482,0.573,2.309
			c-0.063,0.828-0.428,1.55-1.093,2.169c-0.954,0.888-2.17,1.197-3.65,0.929c-1.48-0.269-3.264-1.526-5.352-3.77
			c-1.961-2.107-3.054-3.741-3.28-4.9c-0.227-1.16,0.011-2.066,0.711-2.718c0.928-0.863,2.105-0.851,3.534,0.036
			c-0.378-1.287-0.17-2.302,0.626-3.042c0.995-0.926,2.416-0.954,4.262-0.085c-0.635-1.7-0.36-3.103,0.826-4.206
			c0.967-0.9,2.146-1.207,3.539-0.92c1.391,0.286,2.784,1.177,4.176,2.673c0.881,0.947,1.583,2.004,2.105,3.17
			c0.648-0.487,1.295-0.766,1.94-0.836c0.646-0.069,1.4,0.359,2.262,1.286c0.281,0.302,0.522,0.616,0.723,0.942L-1643.43,435.711z
			 M-1660.982,437.079c-0.115-0.124-0.343-0.203-0.683-0.238c-0.341-0.036-0.627,0.055-0.861,0.272
			c-0.467,0.435-0.48,1.004-0.042,1.71c0.439,0.706,1.032,1.459,1.779,2.263c0.977,1.05,1.741,1.713,2.292,1.987
			c0.551,0.275,1.001,0.251,1.351-0.075c0.268-0.249,0.309-0.618,0.124-1.105c-0.184-0.487-0.989-1.497-2.413-3.027l-0.585-0.608
			c-0.352-0.377-0.578-0.641-0.678-0.79C-1660.805,437.297-1660.899,437.168-1660.982,437.079z M-1650.196,430.856
			c-0.49-0.527-1.017-0.807-1.579-0.84c-0.562-0.032-1.076,0.169-1.542,0.603c-1.057,0.983-1.06,2.04-0.01,3.168
			c0.51,0.548,1.063,0.833,1.662,0.857c0.599,0.023,1.118-0.168,1.557-0.577c0.412-0.383,0.637-0.867,0.676-1.452
			C-1649.394,432.03-1649.648,431.444-1650.196,430.856z"/>
		<path fill="#939598" d="M-1643.993,455.481l-2.854-3.068l5.837-5.432c0.707-0.658,1.165-1.135,1.375-1.433
			c0.209-0.297,0.307-0.637,0.29-1.02c-0.015-0.381-0.174-0.734-0.474-1.057c-1.002-1.077-2.3-0.875-3.892,0.606l-5.837,5.432
			l-2.854-3.068l10.398-9.675l2.653,2.852l-1.761,1.638c1.278-0.306,2.251-0.34,2.919-0.104c0.668,0.236,1.251,0.622,1.75,1.157
			c0.92,0.989,1.394,2.032,1.425,3.13c0.03,1.1-0.734,2.374-2.292,3.823L-1643.993,455.481z"/>
		<path fill="#939598" d="M-1628.263,462.993l-6.227-6.692c-0.191,0.166-0.356,0.313-0.493,0.44
			c-0.741,0.689-1.117,1.407-1.127,2.153c-0.011,0.746,0.239,1.393,0.75,1.941c0.952,1.023,2.069,1.13,3.352,0.32l2.381,2.971
			c-3.124,1.459-5.791,1.002-8.001-1.373c-0.964-1.036-1.575-2.109-1.833-3.22c-0.259-1.11-0.209-2.271,0.15-3.482
			c0.359-1.21,1.094-2.333,2.206-3.368c1.654-1.539,3.429-2.309,5.322-2.31c1.894-0.002,3.53,0.739,4.91,2.221
			c1.245,1.338,1.842,2.925,1.79,4.761C-1625.138,459.191-1626.197,461.071-1628.263,462.993z M-1632.718,454.633l3.439,3.696
			c1.338-1.424,1.506-2.675,0.503-3.752C-1629.849,453.423-1631.164,453.442-1632.718,454.633z"/>
		<path fill="#939598" d="M-1628.378,472.262l-2.769-2.976l10.398-9.675l2.615,2.811l-1.936,1.801
			c1.844-0.909,3.26-0.832,4.25,0.232c0.142,0.151,0.303,0.346,0.487,0.585l-3.026,2.816c-0.582-0.625-1.129-1.021-1.644-1.188
			c-0.514-0.167-1.123-0.13-1.825,0.114c-0.702,0.243-1.475,0.758-2.319,1.543L-1628.378,472.262z"/>
	</g>
	<g>
		<path fill="#939598" d="M-1542.701,494.703h9.098c6.438,0,10.163,3.132,10.163,7.656c0,3.519-2.713,6.65-7.396,7.733l10.322,12.45
			h-3.139l-9.524-12.025h-7.023v12.025h-2.5V494.703z M-1540.201,508.97h6.225c3.405,0,7.875-1.895,7.875-6.767
			c0-3.248-2.128-5.955-7.502-5.955h-6.598V508.97z"/>
		<path fill="#939598" d="M-1501.25,522.967c-0.532-1.121-0.905-2.32-1.064-3.48c-1.968,2.049-4.043,3.48-7.715,3.48
			c-5.161,0-7.821-3.055-7.821-6.496c0-3.905,3.033-7.27,8.46-7.27c2.288,0,4.895,0.657,6.864,1.354
			c0.159-5.181-1.118-7.347-5.747-7.347c-2.448,0-4.522,0.619-6.757,1.354l-0.585-1.663c2.448-0.696,4.842-1.237,7.502-1.237
			c5.161,0,8.247,2.629,8.087,7.192l-0.319,8.352c-0.053,1.972,0.639,3.828,1.383,5.529L-1501.25,522.967z M-1502.687,511.986
			c-1.756-0.657-3.884-1.237-6.119-1.237c-4.682,0-6.544,2.861-6.544,5.877c0,2.281,1.756,4.795,5.321,4.795
			c3.512,0,5.64-2.049,7.343-4.138V511.986z"/>
		<path fill="#939598" d="M-1472.037,515.35c0,2.513,0.266,4.988,1.277,7.385l-2.341,0.232l-1.011-3.364
			c-1.49,2.126-4.203,3.364-7.502,3.364c-4.735,0-10.908-2.823-10.908-10.788c0-8.197,7.183-10.517,11.067-10.517
			c2.5,0,5.001,0.619,6.917,1.74v-9.55h2.5V515.35z M-1474.537,505.22c-1.756-1.121-3.938-2.011-6.279-2.011
			c-3.192,0-9.205,1.585-9.205,9.086c0,7.076,5.268,9.125,8.46,9.125c3.565,0,5.853-1.895,7.023-4.099V505.22z"/>
		<path fill="#939598" d="M-1455.167,503.634h-8.194v-1.546h10.695v20.454h-2.501V503.634z M-1451.176,496.172
			c0,1.122-1.277,2.011-2.82,2.011s-2.767-0.889-2.767-2.011c0-1.121,1.224-2.011,2.767-2.011S-1451.176,495.051-1451.176,496.172z"
			/>
		<path fill="#939598" d="M-1421.431,522.967c-0.532-1.121-0.905-2.32-1.064-3.48c-1.968,2.049-4.043,3.48-7.715,3.48
			c-5.161,0-7.821-3.055-7.821-6.496c0-3.905,3.033-7.27,8.46-7.27c2.288,0,4.895,0.657,6.864,1.354
			c0.159-5.181-1.118-7.347-5.747-7.347c-2.448,0-4.522,0.619-6.757,1.354l-0.585-1.663c2.448-0.696,4.842-1.237,7.502-1.237
			c5.161,0,8.247,2.629,8.087,7.192l-0.319,8.352c-0.053,1.972,0.639,3.828,1.383,5.529L-1421.431,522.967z M-1422.867,511.986
			c-1.756-0.657-3.884-1.237-6.119-1.237c-4.682,0-6.544,2.861-6.544,5.877c0,2.281,1.756,4.795,5.321,4.795
			c3.512,0,5.64-2.049,7.343-4.138V511.986z"/>
		<path fill="#939598" d="M-1393.334,503.634h-10.322v13.958c0,1.972,1.011,3.828,4.469,3.828c3.14,0,5.321-1.702,6.545-3.635
			l2.394,0.425c-1.756,2.629-4.842,4.756-9.045,4.756c-3.618,0-6.864-1.276-6.864-6.457v-12.876h-6.332v-1.546h6.332v-6.573h2.501
			v6.573h10.322V503.634z"/>
		<path fill="#939598" d="M-1375.348,503.634h-8.194v-1.546h10.695v20.454h-2.501V503.634z M-1371.357,496.172
			c0,1.122-1.277,2.011-2.82,2.011s-2.767-0.889-2.767-2.011c0-1.121,1.224-2.011,2.767-2.011S-1371.357,495.051-1371.357,496.172z"
			/>
		<path fill="#939598" d="M-1358.904,512.295c0-7.965,5.64-10.633,10.748-10.633c4.682,0,10.801,2.281,10.801,10.633
			c0,8.313-6.065,10.672-10.801,10.672C-1352.892,522.967-1358.904,520.647-1358.904,512.295z M-1339.855,512.295
			c0-3.982-1.383-9.086-8.3-9.086c-6.864,0-8.248,5.104-8.248,9.086c0,4.021,1.384,9.125,8.248,9.125
			C-1341.239,521.421-1339.855,516.278-1339.855,512.295z"/>
		<path fill="#939598" d="M-1328.573,522.542h-2.501v-10.247c0-3.48-0.16-6.959-1.117-10.439h2.341l1.011,5.877h0.106
			c1.064-3.055,5.534-6.07,10.003-6.07c5.108,0,6.544,3.209,6.544,6.302v14.577h-2.5v-13.727c0-2.358,0-5.606-4.363-5.606
			c-4.043,0-9.524,2.938-9.524,10.904V522.542z"/>
		<path fill="#939598" d="M-1259.877,498.646c-2.395-1.508-5.108-2.938-8.407-2.938c-3.884,0-7.077,1.933-7.077,4.872
			c0,2.165,1.33,3.596,6.012,5.684l3.139,1.392c6.066,2.668,8.833,4.253,8.833,7.694c0,4.794-4.31,7.733-10.854,7.733
			c-4.523,0-8.088-1.547-10.801-4.099l1.916-1.122c2.022,2.127,5.214,3.673,8.886,3.673c4.469,0,8.194-2.397,8.194-5.723
			c0-2.629-0.426-3.634-7.502-6.689l-3.565-1.547c-3.671-1.585-6.917-3.441-6.917-6.805c0-4.176,4.363-6.612,9.897-6.612
			c3.618,0,7.129,1.392,9.737,3.132L-1259.877,498.646z"/>
		<path fill="#939598" d="M-1250.776,493.852h2.5v12.682h0.106c1.703-2.552,5.108-4.872,9.365-4.872
			c2.607,0,6.704,1.508,6.704,5.993v14.886h-2.501v-12.837c0-2.591-0.479-6.496-4.629-6.496c-4.735,0-9.045,4.292-9.045,9.048
			v10.285h-2.5V493.852z"/>
		<path fill="#939598" d="M-1215.709,503.634h-8.194v-1.546h10.694v20.454h-2.5V503.634z M-1211.719,496.172
			c0,1.122-1.277,2.011-2.82,2.011s-2.767-0.889-2.767-2.011c0-1.121,1.224-2.011,2.767-2.011S-1211.719,495.051-1211.719,496.172z"
			/>
		<path fill="#939598" d="M-1177.983,521.111c-3.246,1.044-6.438,1.856-10.056,1.856c-8.247,0-11.28-5.375-11.28-10.556
			s3.139-10.749,11.439-10.749c4.735,0,10.322,2.475,10.322,10.942h-19.261c0.479,7.192,4.576,8.816,8.886,8.816
			c3.192,0,6.226-0.851,8.886-2.011L-1177.983,521.111z M-1180.058,511.058c0.266-3.519-2.607-7.849-8.141-7.849
			c-5.48,0-8.779,4.253-8.62,7.849H-1180.058z"/>
		<path fill="#939598" d="M-1162.869,495.398h-8.3v-1.546h10.801v28.69h-2.501V495.398z"/>
		<path fill="#939598" d="M-1126.153,515.35c0,2.513,0.266,4.988,1.277,7.385l-2.341,0.232l-1.011-3.364
			c-1.49,2.126-4.203,3.364-7.502,3.364c-4.735,0-10.908-2.823-10.908-10.788c0-8.197,7.183-10.517,11.067-10.517
			c2.5,0,5.001,0.619,6.917,1.74v-9.55h2.5V515.35z M-1128.654,505.22c-1.756-1.121-3.938-2.011-6.279-2.011
			c-3.192,0-9.205,1.585-9.205,9.086c0,7.076,5.268,9.125,8.46,9.125c3.565,0,5.853-1.895,7.023-4.099V505.22z"/>
		<path fill="#939598" d="M-1109.284,503.634h-8.194v-1.546h10.694v20.454h-2.5V503.634z M-1105.293,496.172
			c0,1.122-1.277,2.011-2.82,2.011s-2.767-0.889-2.767-2.011c0-1.121,1.224-2.011,2.767-2.011S-1105.293,495.051-1105.293,496.172z"
			/>
		<path fill="#939598" d="M-1089.115,522.542h-2.501v-10.247c0-3.48-0.16-6.959-1.117-10.439h2.341l1.011,5.877h0.106
			c1.064-3.055,5.534-6.07,10.003-6.07c5.108,0,6.544,3.209,6.544,6.302v14.577h-2.5v-13.727c0-2.358,0-5.606-4.363-5.606
			c-4.043,0-9.524,2.938-9.524,10.904V522.542z"/>
		<path fill="#939598" d="M-1062.562,525.21c1.649,1.431,4.31,2.32,6.917,2.32c3.139,0,7.183-1.663,7.183-6.805v-2.513
			c-1.916,1.469-5.161,2.513-7.928,2.513c-6.704,0-9.737-4.872-9.737-9.125c0-4.717,2.66-9.937,10.322-9.937
			c3.139,0,5.268,1.005,7.662,2.358l0.745-2.358h2.554c-1.277,3.519-1.224,7.192-1.224,10.788v8.506c0,6.032-5.747,8.12-10.056,8.12
			c-2.926,0-6.225-1.237-8.194-2.746L-1062.562,525.21z M-1048.568,506.187c-1.649-1.702-4.363-2.978-7.343-2.978
			c-5.8,0-7.715,4.563-7.715,8.042c0,6.458,5.161,7.927,7.449,7.927c2.873,0,6.119-1.315,7.609-3.132V506.187z"/>
	</g>
	<g opacity="0.8">
		<path fill="#F7941E" d="M-1596.682,497.353c0.313,0,0.567-0.138,0.76-0.412c0.194-0.275,0.291-0.799,0.291-1.572
			c0-0.821-0.086-1.378-0.257-1.671c-0.171-0.294-0.431-0.441-0.781-0.441c-0.349,0-0.613,0.136-0.791,0.406
			c-0.177,0.271-0.266,0.809-0.266,1.614c0,0.74,0.085,1.27,0.253,1.592C-1597.303,497.192-1597.039,497.353-1596.682,497.353z"/>
		<path fill="#F7941E" d="M-1591.916,468.703c-19.827,0-35.9,16.073-35.9,35.901c0,19.829,16.074,35.901,35.9,35.901
			c19.829,0,35.902-16.073,35.902-35.901C-1556.014,484.776-1572.087,468.703-1591.916,468.703z M-1581.059,492.967
			c0.568-0.612,1.297-0.916,2.189-0.916c0.806,0,1.496,0.283,2.073,0.851c0.576,0.568,0.864,1.474,0.864,2.716h-4.027
			c-0.003,0.112-0.006,0.208-0.006,0.292c0,0.446,0.118,0.782,0.356,1.01c0.237,0.227,0.521,0.34,0.852,0.34
			c0.615,0,0.985-0.328,1.109-0.985l1.672,0.124c-0.467,1.445-1.415,2.167-2.843,2.167c-0.624,0-1.153-0.125-1.589-0.375
			c-0.435-0.249-0.794-0.613-1.078-1.093c-0.283-0.479-0.424-1.054-0.424-1.722
			C-1581.911,494.382-1581.627,493.578-1581.059,492.967z M-1593.155,492.18h1.79v4.088c0,0.563,0.231,0.843,0.694,0.843
			c0.235,0,0.439-0.067,0.613-0.202c0.173-0.134,0.284-0.277,0.331-0.43s0.071-0.416,0.071-0.787v-3.513h1.847v6.257h-1.71v-1.066
			c-0.322,0.797-0.937,1.195-1.846,1.195c-0.471,0-0.832-0.087-1.084-0.263c-0.252-0.175-0.433-0.415-0.542-0.719
			s-0.164-0.742-0.164-1.317V492.18z M-1590.969,506.158c0,1.227-0.31,2.261-0.929,3.104c-0.619,0.842-1.523,1.264-2.711,1.264
			c-1.139,0-2.02-0.428-2.643-1.283c-0.622-0.855-0.935-1.889-0.935-3.104c0-1.235,0.316-2.266,0.947-3.091
			c0.631-0.827,1.53-1.24,2.698-1.24c1.181,0,2.07,0.442,2.671,1.323C-1591.27,504.014-1590.969,505.023-1590.969,506.158z
			 M-1599.308,493.602c0.24-0.465,0.571-0.839,0.992-1.124c0.421-0.285,0.954-0.427,1.598-0.427c0.953,0,1.696,0.311,2.23,0.935
			c0.534,0.623,0.802,1.403,0.802,2.342c0,0.925-0.278,1.695-0.833,2.313c-0.555,0.617-1.293,0.925-2.212,0.925
			c-0.892,0-1.604-0.305-2.138-0.917c-0.534-0.611-0.801-1.396-0.801-2.354C-1599.67,494.631-1599.549,494.066-1599.308,493.602z
			 M-1606.816,489.981h1.945v3.295h2.639v-3.295h1.944v8.456h-1.944v-3.488h-2.639v3.488h-1.945V489.981z M-1613.515,522.355
			l-0.521-1.741h-2.734l-0.53,1.741h-1.737l2.71-8.457h2.294l2.647,8.457H-1613.515z M-1605.758,522.355h-1.847v-3.513
			c0-0.425-0.016-0.716-0.049-0.874s-0.114-0.29-0.242-0.399c-0.128-0.11-0.289-0.165-0.483-0.165c-0.648,0-0.972,0.479-0.972,1.438
			v3.513h-1.846v-6.257h1.716v1.059c0.285-0.503,0.566-0.827,0.842-0.971c0.277-0.145,0.576-0.217,0.898-0.217
			c0.595,0,1.074,0.16,1.438,0.48c0.363,0.319,0.545,0.949,0.545,1.885V522.355z M-1600.653,521.878
			c-0.489,0.404-1.174,0.607-2.053,0.607c-1.595,0-2.546-0.618-2.856-1.853l1.555-0.228c0.128,0.562,0.59,0.841,1.387,0.841
			c0.306,0,0.564-0.054,0.774-0.163c0.211-0.109,0.316-0.258,0.316-0.445c0-0.29-0.233-0.461-0.7-0.514
			c-1.264-0.156-2.095-0.398-2.493-0.726c-0.398-0.329-0.598-0.787-0.598-1.373c0-0.595,0.231-1.086,0.694-1.475
			c0.463-0.388,1.111-0.582,1.945-0.582c0.661,0,1.189,0.13,1.586,0.39c0.397,0.26,0.701,0.677,0.911,1.251l-1.344,0.359
			c-0.157-0.565-0.564-0.848-1.22-0.848c-0.62,0-0.93,0.188-0.93,0.564c0,0.15,0.057,0.269,0.171,0.357
			c0.114,0.088,0.41,0.164,0.889,0.225c0.715,0.095,1.243,0.204,1.586,0.328s0.615,0.333,0.815,0.625
			c0.199,0.293,0.301,0.654,0.301,1.084C-1599.918,520.948-1600.163,521.473-1600.653,521.878z M-1595.833,522.355
			c-0.058-0.248-0.086-0.574-0.086-0.979c-0.314,0.446-0.626,0.743-0.938,0.889c-0.312,0.147-0.665,0.22-1.061,0.22
			c-0.586,0-1.059-0.159-1.419-0.477c-0.361-0.318-0.542-0.746-0.542-1.282c0-0.392,0.105-0.753,0.316-1.084
			c0.21-0.33,0.548-0.59,1.014-0.777c0.466-0.187,1.315-0.327,2.549-0.418v-0.359c0-0.608-0.304-0.91-0.909-0.91
			c-0.646,0-1.006,0.302-1.081,0.91l-1.704-0.161c0.112-0.711,0.449-1.215,1.011-1.512c0.561-0.297,1.196-0.446,1.908-0.446
			c0.424,0,0.826,0.049,1.202,0.148c0.376,0.1,0.669,0.248,0.879,0.446c0.21,0.198,0.353,0.408,0.427,0.628
			c0.075,0.221,0.112,0.606,0.112,1.156v2.837c0,0.544,0.037,0.935,0.111,1.171H-1595.833z M-1587.825,522.355h-1.847v-3.513
			c0-0.425-0.016-0.716-0.049-0.874c-0.033-0.157-0.113-0.29-0.242-0.399c-0.128-0.11-0.288-0.165-0.483-0.165
			c-0.649,0-0.973,0.479-0.973,1.438v3.513h-1.847v-6.257h1.717v1.059c0.285-0.503,0.566-0.827,0.842-0.971
			c0.276-0.145,0.576-0.217,0.898-0.217c0.595,0,1.074,0.16,1.438,0.48c0.363,0.319,0.545,0.949,0.545,1.885V522.355z
			 M-1587.187,503.092c-0.265-0.02-0.483-0.03-0.657-0.03c-0.252,0-0.42,0.066-0.501,0.198c-0.083,0.132-0.124,0.347-0.124,0.645
			v0.235h1.133v1.437h-1.133v4.82h-1.797v-4.82h-0.726v-1.437h0.726c0.008-0.645,0.054-1.115,0.139-1.41
			c0.084-0.295,0.302-0.558,0.653-0.787c0.351-0.23,0.829-0.344,1.431-0.344c0.248,0,0.533,0.023,0.855,0.068V503.092z
			 M-1587.614,496.715l1.555-0.229c0.128,0.562,0.59,0.842,1.388,0.842c0.305,0,0.563-0.054,0.773-0.164
			c0.211-0.11,0.316-0.258,0.316-0.444c0-0.291-0.233-0.462-0.7-0.515c-1.264-0.155-2.095-0.397-2.494-0.726
			c-0.399-0.328-0.598-0.786-0.598-1.372c0-0.594,0.231-1.086,0.693-1.474c0.463-0.388,1.111-0.582,1.945-0.582
			c0.66,0,1.189,0.129,1.586,0.389c0.396,0.261,0.699,0.678,0.911,1.251l-1.345,0.359c-0.157-0.566-0.564-0.849-1.221-0.849
			c-0.619,0-0.929,0.189-0.929,0.565c0,0.148,0.057,0.268,0.17,0.357c0.114,0.088,0.41,0.164,0.889,0.225
			c0.714,0.095,1.243,0.204,1.585,0.328c0.343,0.124,0.614,0.333,0.814,0.625c0.201,0.293,0.301,0.655,0.301,1.084
			c0,0.645-0.245,1.169-0.734,1.573c-0.49,0.405-1.175,0.607-2.054,0.607C-1586.353,498.566-1587.304,497.95-1587.614,496.715z
			 M-1579.493,522.355l-1.688-3.672l-1.186,1.733v1.939h-1.945v-8.457h1.945v3.974l2.651-3.974h1.896l-2.031,3.02l2.539,5.437
			H-1579.493z M-1575.189,522.355h-1.847v-6.257h1.847V522.355z M-1575.189,515.571h-1.847v-1.846h1.847V515.571z M-1566.99,522.355
			v-6.895l-2.127,6.895h-1.355l-2.087-6.895v6.895h-1.659v-8.457h3.084l1.484,5.062l1.561-5.062h3.094v8.457H-1566.99z"/>
		<polygon fill="#F7941E" points="-1616.295,519.053 -1614.504,519.053 -1615.392,516.085 		"/>
		<path fill="#F7941E" d="M-1597.933,520.527c0,0.22,0.067,0.409,0.204,0.567c0.136,0.16,0.329,0.239,0.581,0.239
			c0.325,0,0.598-0.135,0.818-0.406c0.22-0.271,0.331-0.604,0.331-1v-0.571C-1597.289,519.484-1597.933,519.875-1597.933,520.527z"
			/>
		<path fill="#F7941E" d="M-1594.553,503.427c-1.039,0-1.559,0.913-1.559,2.737c0,1.83,0.52,2.744,1.559,2.744
			c1.005,0,1.508-0.912,1.508-2.737C-1593.044,504.341-1593.547,503.427-1594.553,503.427z"/>
		<path fill="#F7941E" d="M-1578.801,493.257c-0.694,0-1.082,0.43-1.165,1.289h2.224
			C-1577.8,493.688-1578.153,493.257-1578.801,493.257z"/>
	</g>
</g>
</svg>
